<?xml version="1.0" standalone="no"?>
<!DOCTYPE svg PUBLIC "-//W3C//DTD SVG 20010904//EN"
 "http://www.w3.org/TR/2001/REC-SVG-20010904/DTD/svg10.dtd">
<svg version="1.0" xmlns="http://www.w3.org/2000/svg"
 width="554.000000pt" height="554.000000pt" viewBox="0 0 554.000000 554.000000"
 preserveAspectRatio="xMidYMid meet">

<g transform="translate(0.000000,554.000000) scale(0.100000,-0.100000)"
fill="#000000" stroke="none">
<path d="M2333 3223 c42 -2 112 -2 155 0 42 1 7 3 -78 3 -85 0 -120 -2 -77 -3z"/>
<path d="M2978 3223 c12 -2 32 -2 45 0 12 2 2 4 -23 4 -25 0 -35 -2 -22 -4z"/>
<path d="M2201 3211 c-7 -5 -12 -14 -10 -20 2 -6 10 -2 17 9 14 22 13 23 -7
11z"/>
<path d="M2706 3112 c-3 -5 1 -9 9 -9 8 0 12 4 9 9 -3 4 -7 8 -9 8 -2 0 -6 -4
-9 -8z"/>
<path d="M2172 3085 c0 -16 2 -22 5 -12 2 9 2 23 0 30 -3 6 -5 -1 -5 -18z"/>
<path d="M2992 3096 c7 -8 15 -12 17 -11 5 6 -10 25 -20 25 -5 0 -4 -6 3 -14z"/>
<path d="M2530 3060 c-7 -17 -20 -35 -29 -40 -9 -5 -11 -10 -5 -10 6 0 19 9
29 20 10 11 21 17 26 14 8 -4 4 35 -4 43 -3 2 -10 -10 -17 -27z"/>
<path d="M2477 3051 c-4 -17 -3 -21 5 -13 5 5 8 16 6 23 -3 8 -7 3 -11 -10z"/>
<path d="M2367 3047 c-3 -8 3 -14 16 -15 12 0 17 2 12 6 -6 4 -13 11 -16 15
-4 4 -9 2 -12 -6z"/>
<path d="M3000 3051 c0 -6 4 -13 10 -16 6 -3 7 1 4 9 -7 18 -14 21 -14 7z"/>
<path d="M3222 3035 c0 -16 2 -22 5 -12 2 9 2 23 0 30 -3 6 -5 -1 -5 -18z"/>
<path d="M2217 2939 c7 -7 15 -10 18 -7 3 3 -2 9 -12 12 -14 6 -15 5 -6 -5z"/>
<path d="M2303 2933 c26 -2 67 -2 90 0 23 2 2 3 -48 3 -49 0 -68 -1 -42 -3z"/>
<path d="M2563 2933 c65 -2 168 -2 230 0 62 1 9 3 -118 3 -126 0 -177 -2 -112
-3z"/>
<path d="M3103 2933 c9 -2 25 -2 35 0 9 3 1 5 -18 5 -19 0 -27 -2 -17 -5z"/>
<path d="M26 2341 c21 -82 77 -264 95 -306 18 -42 39 -111 39 -127 0 -10 6
-18 14 -18 18 0 27 -25 15 -37 -15 -15 4 -53 45 -92 38 -36 47 -57 21 -47 -22
8 -57 -24 -44 -41 6 -7 16 -10 22 -6 6 3 23 7 39 8 22 2 28 -1 26 -13 -2 -12
-14 -16 -41 -15 -36 0 -37 0 -21 -18 9 -11 14 -19 10 -19 -4 0 2 -13 13 -29
12 -16 21 -34 21 -40 0 -6 3 -10 8 -10 31 5 71 -3 76 -17 5 -12 1 -14 -16 -8
-19 6 -21 5 -11 -8 10 -11 8 -17 -7 -28 -14 -10 -17 -18 -9 -32 5 -10 7 -23 4
-28 -10 -17 5 -32 20 -20 9 8 14 6 19 -5 3 -8 12 -15 21 -15 8 0 15 -5 15 -11
0 -7 -7 -8 -18 -4 -57 24 -73 12 -21 -17 26 -15 29 -20 19 -39 -10 -17 -8 -25
7 -42 23 -27 45 -67 37 -67 -3 0 -14 5 -24 10 -28 15 -38 -9 -13 -29 28 -22
33 -43 14 -59 -9 -8 -11 -11 -5 -8 7 3 36 -18 67 -47 46 -45 54 -57 53 -87 0
-19 -6 -35 -13 -35 -26 0 -21 -14 15 -38 33 -22 38 -29 34 -55 -2 -16 1 -33 7
-36 7 -5 8 -1 4 11 -6 16 -5 17 12 3 16 -14 17 -13 11 5 -6 20 -2 21 77 20 45
-1 92 -7 105 -14 12 -6 28 -9 34 -5 7 4 8 3 4 -4 -4 -7 -2 -12 5 -12 7 0 10
-2 7 -5 -3 -3 -27 0 -53 6 -42 11 -50 10 -60 -4 -7 -9 -16 -13 -20 -9 -4 4 -6
0 -3 -8 3 -8 10 -16 16 -16 7 -1 15 -2 19 -3 3 0 -2 -10 -12 -21 -17 -19 -17
-21 0 -40 9 -10 34 -24 54 -31 45 -14 81 -36 81 -50 0 -6 -21 1 -46 15 -26 14
-58 26 -73 26 l-26 -1 28 -22 c24 -21 38 -67 19 -67 -4 0 -34 13 -67 30 -33
16 -68 30 -77 30 -25 0 -23 -27 2 -35 19 -6 58 -65 43 -65 -3 0 -26 10 -50 21
-24 12 -46 20 -48 17 -8 -8 35 -89 51 -95 9 -3 25 -1 36 6 17 10 22 9 33 -5
11 -16 15 -16 29 -5 20 17 33 7 17 -12 -9 -11 -6 -19 13 -38 13 -13 32 -48 42
-77 l19 -53 -28 -21 c-15 -11 -27 -24 -27 -28 0 -13 51 -62 58 -56 3 3 2 6 -2
6 -3 0 1 14 9 31 21 40 63 38 83 -4 8 -15 26 -32 40 -38 98 -35 129 -64 82
-76 -11 -3 -20 -9 -20 -14 0 -22 25 -56 57 -76 34 -23 40 -23 339 -23 264 0
304 2 304 15 0 19 16 19 24 0 5 -13 101 -15 779 -15 l773 0 -4 34 c-4 31 0 38
37 63 45 31 55 51 52 103 -2 46 -23 60 -91 60 -82 0 -122 -29 -132 -94 -12
-87 -58 -109 -116 -56 -18 16 -40 30 -49 30 -13 0 -15 11 -11 65 l4 64 -36 3
c-53 5 -54 39 -1 87 48 44 53 71 15 71 -31 0 -60 -14 -94 -46 -14 -12 -42 -30
-64 -39 -35 -15 -38 -19 -32 -47 9 -48 33 -68 78 -68 35 0 39 -2 36 -22 -2
-14 -15 -29 -34 -38 -17 -8 -37 -27 -44 -43 -28 -65 -90 -55 -90 14 0 38 -2
40 -27 37 -24 -3 -29 -9 -39 -54 -6 -28 -14 -57 -18 -63 -12 -19 -40 -12 -85
24 -54 43 -70 64 -71 91 0 12 -7 27 -15 34 -17 14 -11 50 11 63 39 22 -48 133
-116 148 -19 5 -48 11 -63 15 -19 4 -33 1 -47 -11 -27 -24 -90 -37 -97 -19 -6
17 -37 13 -61 -9 -23 -21 -46 -22 -62 -2 -18 21 6 47 39 43 33 -3 51 8 51 33
0 23 3 23 -50 4 -53 -19 -60 -19 -60 0 0 14 9 25 45 49 17 12 18 16 5 31 -12
15 -12 19 3 30 10 7 15 19 11 28 -7 18 25 66 43 67 7 0 24 -10 38 -22 19 -17
25 -31 25 -64 0 -33 5 -45 23 -57 44 -28 57 -25 72 18 8 22 21 45 30 51 17 12
47 102 39 116 -3 4 -14 8 -24 8 -10 0 -22 5 -26 11 -8 14 14 29 46 29 23 0 22
3 -20 46 -39 40 -87 74 -105 74 -3 0 -5 -6 -5 -13 0 -23 -44 -56 -75 -58 -17
-1 -51 1 -77 6 -44 7 -48 6 -48 -13 0 -18 -5 -19 -41 -15 l-42 6 5 -36 4 -35
-28 19 c-15 11 -28 27 -28 35 0 22 -50 38 -64 20 -16 -21 -50 -24 -52 -6 -3
40 -3 40 -53 20 -27 -10 -51 -16 -55 -13 -3 3 -12 1 -19 -5 -8 -7 -18 -8 -22
-4 -5 4 -5 -1 -2 -11 4 -10 7 -21 7 -23 0 -2 18 -1 40 2 27 4 40 3 40 -5 0 -6
-7 -11 -15 -11 -8 0 -23 -9 -32 -20 -22 -25 -30 -25 -38 0 -7 23 -25 27 -25 5
0 -39 -48 -94 -70 -80 -12 7 9 56 32 73 10 7 18 17 18 23 0 17 -25 9 -78 -25
-38 -26 -52 -31 -52 -20 0 11 -10 5 -31 -15 -36 -36 -49 -39 -49 -11 0 26 32
58 66 66 l27 7 -33 28 c-18 16 -29 29 -24 29 5 1 -4 7 -21 14 -21 9 -34 10
-45 3 -10 -8 -10 -5 2 7 11 13 22 16 35 11 10 -5 24 -7 31 -6 6 1 12 -2 12 -7
0 -8 43 -32 57 -32 3 0 -7 11 -23 25 -24 21 -26 25 -10 25 21 0 66 44 66 65 0
7 14 18 31 24 40 14 39 14 33 -2 -2 -7 4 -21 15 -31 24 -21 65 -15 75 11 9 22
-11 33 -46 26 -16 -3 -28 -1 -28 5 0 12 23 37 42 46 9 4 9 8 2 11 -18 9 -3 67
25 92 20 17 21 21 7 16 -18 -6 -17 -4 2 15 12 12 29 22 37 22 21 0 31 -30 15
-40 -11 -7 -11 -13 -2 -32 8 -14 10 -16 7 -4 -5 16 -3 17 9 7 8 -7 12 -19 9
-27 -3 -8 0 -14 7 -14 8 0 11 -9 8 -25 -4 -19 0 -26 16 -31 12 -3 28 -12 36
-19 8 -7 25 -16 37 -19 18 -6 24 -2 28 16 7 27 83 69 112 62 10 -2 24 0 31 5
12 7 11 14 -2 39 -9 17 -16 36 -16 42 0 6 -7 18 -15 26 -13 14 -16 13 -23 -7
-6 -15 -11 -18 -16 -11 -4 7 -4 12 0 12 3 0 1 6 -5 14 -12 15 -5 46 11 46 5 0
6 5 3 11 -4 6 -14 8 -22 5 -9 -4 -22 -1 -29 5 -11 9 -15 7 -20 -5 -3 -9 -4
-23 0 -31 5 -14 -4 -19 -30 -16 -6 1 -18 -7 -25 -16 -13 -17 -13 -17 6 -3 18
14 19 14 7 -1 -7 -9 -10 -25 -6 -35 5 -18 5 -18 -6 -1 -6 9 -16 14 -22 11 -8
-5 -9 6 -6 34 6 39 5 42 -27 52 -40 13 -100 6 -121 -14 -26 -27 -26 -18 0 17
14 19 23 37 19 40 -3 4 3 7 15 7 12 0 22 4 22 9 0 18 -69 6 -93 -17 -13 -12
-33 -22 -45 -22 -11 0 -24 -4 -27 -10 -3 -5 -1 -10 5 -10 7 0 10 -6 7 -14 -3
-7 3 -20 14 -29 17 -15 19 -15 29 1 8 14 10 12 7 -10 -2 -15 -15 -36 -30 -48
-26 -20 -27 -21 -27 -2 0 23 -51 54 -57 35 -3 -7 -11 -13 -18 -13 -16 0 -27
38 -11 43 8 3 7 9 -3 21 -14 17 -26 14 -26 -7 0 -7 -10 -13 -22 -15 -13 -2
-23 -8 -23 -14 0 -7 -5 -6 -15 2 -16 13 -39 4 -29 -12 4 -7 2 -8 -5 -4 -19 12
7 36 40 36 15 0 30 4 33 9 8 12 -20 22 -41 15 -15 -5 -16 -4 -3 5 8 6 10 11 4
11 -6 0 -21 -13 -34 -30 -12 -16 -27 -27 -32 -24 -4 3 -8 2 -7 -3 4 -22 -3
-31 -28 -38 -19 -4 -23 -9 -14 -14 17 -11 0 -46 -29 -61 -22 -12 -27 -1 -7 19
10 11 9 12 -3 6 -10 -6 -8 -1 4 13 28 32 2 27 -37 -8 -19 -16 -40 -30 -46 -30
-5 0 -8 -8 -5 -18 5 -13 4 -14 -4 -3 -5 7 -15 10 -22 6 -9 -6 -9 -9 0 -15 9
-5 8 -9 -2 -13 -8 -3 -15 1 -15 9 0 20 67 80 102 91 21 7 29 16 27 28 -2 10 1
14 7 10 6 -3 19 -1 28 5 17 11 17 11 1 6 -10 -3 -18 -1 -18 5 0 6 -6 9 -14 6
-7 -3 -23 1 -35 9 -11 8 -21 11 -21 5 0 -5 10 -17 22 -25 17 -12 20 -18 10
-28 -9 -9 -15 -9 -24 0 -7 7 -13 18 -13 25 0 7 -12 11 -29 10 -23 -2 -26 0
-16 13 7 7 18 14 26 14 7 0 16 4 19 10 3 5 -15 2 -40 -8 -25 -9 -41 -18 -35
-20 7 -3 7 -9 -2 -20 -11 -13 -10 -15 10 -10 12 4 20 3 17 -2 -3 -4 -13 -10
-24 -13 -15 -4 -19 0 -16 15 4 17 0 19 -23 13 -31 -8 -64 -34 -57 -45 3 -5 -4
-6 -14 -3 -34 9 45 66 132 95 42 15 75 22 72 17 -4 -5 -1 -9 4 -9 6 0 11 9 11
20 0 12 -7 20 -16 20 -14 0 -14 3 -4 15 10 12 10 15 0 15 -10 0 -10 3 0 15 11
13 15 13 22 3 6 -10 10 -10 18 2 8 13 10 12 10 -4 0 -13 -5 -17 -19 -13 -14 3
-18 1 -14 -9 3 -8 9 -11 14 -8 5 3 6 -2 2 -12 -5 -14 -3 -15 15 -5 27 15 45
14 39 -1 -2 -7 -10 -12 -16 -10 -7 1 -10 -2 -6 -8 3 -6 12 -8 18 -4 7 3 2 -4
-11 -15 -13 -11 -30 -17 -37 -14 -8 3 -15 1 -15 -5 0 -5 12 -12 28 -15 21 -4
33 1 55 23 17 17 24 31 17 35 -15 9 -12 51 5 65 8 7 15 18 15 25 0 8 5 15 12
17 7 3 5 13 -7 31 -18 28 -16 39 9 43 9 1 12 -5 9 -16 -3 -11 2 -28 10 -40 14
-21 14 -21 20 0 3 11 12 23 20 26 19 7 67 -23 67 -43 0 -22 16 -7 39 37 24 47
28 92 8 84 -8 -3 -14 2 -14 10 0 8 4 13 9 10 4 -3 8 2 8 11 0 12 6 15 19 10
25 -8 31 4 16 32 -8 15 -15 19 -26 13 -8 -5 -14 -15 -14 -21 0 -7 -15 -19 -32
-26 -30 -12 -33 -11 -33 5 0 11 10 24 23 31 12 6 14 9 4 7 -15 -5 -16 -2 -7
14 9 17 8 18 -17 9 -38 -13 -83 -48 -63 -49 8 0 0 -8 -18 -17 -18 -8 -36 -12
-40 -8 -4 4 -2 10 5 12 21 7 -18 40 -54 45 -18 2 -30 1 -27 -3 2 -4 0 -10 -6
-14 -19 -12 -11 -35 11 -32 12 1 24 -4 27 -12 3 -10 -2 -11 -19 -6 -22 7 -22
7 -6 -9 19 -19 20 -26 11 -50 -3 -9 -10 -13 -16 -10 -5 3 -8 0 -7 -7 5 -21
-27 -74 -35 -61 -4 7 -2 22 5 34 12 23 12 23 -9 4 -12 -10 -19 -23 -15 -29 3
-5 0 -7 -8 -5 -8 3 -21 1 -31 -3 -11 -6 -18 -4 -21 6 -4 9 -1 12 8 9 7 -3 16
3 19 13 3 10 19 24 35 31 23 10 30 20 33 51 3 36 -15 71 -29 57 -3 -3 -12 2
-20 12 -12 16 -14 16 -24 0 -14 -25 -30 -22 -25 5 3 12 5 25 5 30 1 4 15 0 32
-8 17 -9 33 -14 37 -11 3 3 0 6 -7 6 -7 0 -9 5 -6 10 4 6 1 9 -7 8 -7 -2 -13
6 -13 17 0 14 -7 20 -23 20 -12 0 -27 7 -33 15 -9 13 -10 13 -8 0 3 -30 -1
-50 -11 -50 -5 0 -10 8 -11 18 0 13 -2 14 -6 2 -3 -8 -11 -18 -17 -22 -8 -5
-7 -8 2 -8 6 0 12 -5 12 -11 0 -6 -7 -9 -15 -5 -8 3 -15 0 -15 -7 0 -7 -5 -4
-11 6 -6 10 -9 27 -6 37 8 30 -50 69 -71 48 -7 -7 -10 -5 -8 8 2 12 10 18 22
17 14 -2 13 0 -5 9 -19 10 -25 10 -29 0 -2 -6 -10 -12 -18 -12 -22 0 -17 -16
11 -34 20 -13 23 -20 15 -35 -11 -22 -50 -17 -50 5 0 8 -5 14 -11 14 -5 0 -8
-4 -4 -10 3 -5 -2 -18 -12 -30 -21 -24 -48 -27 -39 -4 3 8 2 12 -4 9 -6 -3
-10 1 -10 10 0 14 -6 16 -27 10 -34 -8 -34 -8 -36 -34 -1 -18 -3 -20 -12 -8
-7 10 -17 12 -33 6 -12 -5 -22 -11 -22 -15 0 -3 8 -3 18 1 13 5 14 3 5 -6 -6
-6 -19 -9 -28 -6 -13 6 -13 10 -3 26 7 11 19 22 27 23 12 2 11 6 -4 21 -17 18
-17 18 3 24 12 3 24 14 27 24 4 10 10 19 15 19 14 0 21 -18 10 -25 -5 -3 -10
-13 -10 -20 0 -19 60 -9 78 14 7 9 29 20 48 26 35 10 35 10 16 31 -11 11 -23
30 -26 42 -9 27 -30 29 -23 2 3 -13 -1 -21 -14 -25 -11 -4 -17 -10 -14 -15 3
-4 -2 -11 -10 -14 -19 -7 -75 4 -75 15 0 18 44 49 62 43 23 -7 23 8 -1 30 -15
14 -20 14 -30 2 -6 -7 -22 -16 -35 -18 -19 -4 -23 -1 -19 11 4 9 10 21 14 27
5 6 0 17 -11 27 -18 15 -24 14 -21 -5 3 -22 -33 0 -42 26 -6 14 -13 17 -32 12
-24 -6 -25 -4 -19 21 9 38 13 43 30 43 9 0 14 5 12 11 -4 11 -9 12 -47 2 -13
-3 -31 -1 -40 4 -11 7 -24 7 -40 0 -19 -9 -26 -8 -37 8 -20 27 -17 35 11 35
19 0 25 5 25 22 0 20 -1 20 -20 3 -22 -20 -50 -14 -50 10 0 9 -5 13 -10 10 -6
-4 -8 -15 -5 -26 5 -14 2 -19 -13 -19 -19 0 -31 21 -38 68 -2 18 2 22 22 22
21 0 24 5 24 33 0 33 0 33 -48 33 -39 -1 -49 3 -57 22 -11 24 -28 31 -19 7 4
-9 0 -15 -9 -15 -17 0 -30 27 -21 42 3 5 -12 25 -34 44 -22 19 -50 55 -63 82
-25 51 -74 118 -93 125 -8 3 -5 -23 10 -82z m469 -581 c3 -5 -1 -10 -9 -10 -9
0 -16 5 -16 10 0 6 4 10 9 10 6 0 13 -4 16 -10z m75 0 c0 -5 -7 -10 -15 -10
-8 0 -15 5 -15 10 0 6 7 10 15 10 8 0 15 -4 15 -10z m-75 -40 c3 -5 1 -10 -4
-10 -6 0 -11 5 -11 10 0 6 2 10 4 10 3 0 8 -4 11 -10z m134 -4 c9 -11 8 -15
-5 -20 -29 -11 -44 -6 -44 14 0 23 31 27 49 6z m-49 -71 c0 -8 -9 -15 -20 -15
-22 0 -27 15 -7 23 21 9 27 7 27 -8z m338 -123 c2 -8 -2 -10 -15 -5 -16 6 -16
5 -4 -10 16 -20 1 -23 -31 -6 -15 8 -23 8 -32 -2 -8 -9 -8 -10 2 -5 7 4 12 1
12 -8 0 -9 -6 -16 -13 -16 -7 0 -20 -9 -30 -20 -20 -23 -39 -27 -31 -5 4 8 9
15 13 15 4 0 14 13 24 29 13 22 14 30 5 34 -7 3 2 4 19 2 18 -2 35 1 39 6 8
13 36 7 42 -9z m462 -22 c0 -5 -7 -7 -15 -4 -8 4 -15 8 -15 10 0 2 7 4 15 4 8
0 15 -4 15 -10z m-680 -20 c0 -5 -8 -10 -17 -10 -15 0 -16 2 -3 10 19 12 20
12 20 0z m45 0 c-3 -5 -11 -10 -16 -10 -6 0 -7 5 -4 10 3 6 11 10 16 10 6 0 7
-4 4 -10z m536 -61 c-9 -4 -19 -1 -23 5 -4 6 -8 7 -8 3 0 -5 -5 -5 -10 -2 -6
4 -4 13 6 23 11 11 13 17 5 20 -6 2 -8 8 -5 13 3 5 16 -5 28 -23 19 -29 20
-34 7 -39z m-391 54 c0 -13 -50 -67 -56 -60 -3 3 7 19 22 36 28 32 34 36 34
24z m161 -4 c11 -5 17 -14 14 -20 -9 -14 15 -11 31 5 11 11 11 16 1 19 -6 3
-1 6 11 6 29 1 25 -16 -9 -36 -24 -15 -28 -15 -52 3 -39 28 -36 45 4 23z m329
6 c0 -2 -11 -21 -25 -41 -28 -42 -31 -39 -11 11 8 19 20 35 25 35 6 0 11 -2
11 -5z m-1025 -45 c15 -17 16 -20 3 -20 -9 0 -18 9 -21 20 -3 11 -4 20 -3 20
2 0 11 -9 21 -20z m335 6 c0 -2 -7 -9 -15 -16 -13 -11 -14 -10 -9 4 5 14 24
23 24 12z m230 -6 c12 -8 9 -10 -13 -10 -16 0 -26 4 -22 10 8 12 16 12 35 0z
m96 -11 c4 -8 -1 -9 -16 -4 -17 5 -21 4 -15 -5 5 -9 4 -11 -4 -6 -6 4 -9 12
-6 17 8 12 32 11 41 -2z m442 -10 c3 -11 2 -11 -7 1 -9 12 -11 10 -11 -12 0
-21 -5 -28 -20 -28 -24 0 -25 5 -2 35 18 26 33 28 40 4z m-1030 -19 c7 0 12
-4 12 -10 0 -18 -16 -11 -41 17 -17 20 -18 23 -3 10 11 -9 26 -17 32 -17z
m522 -9 c-13 -11 -28 -17 -33 -14 -11 6 23 32 43 32 10 1 7 -6 -10 -18z m-194
-30 c-5 -8 -11 -7 -20 2 -10 9 -11 14 -2 19 14 9 30 -7 22 -21z m161 -7 c-3
-3 -12 -4 -19 -1 -8 3 -5 6 6 6 11 1 17 -2 13 -5z m-182 -24 c3 -5 1 -10 -4
-10 -6 0 -11 5 -11 10 0 6 2 10 4 10 3 0 8 -4 11 -10z m366 -28 c-7 -2 -18 1
-23 6 -8 8 -4 9 13 5 13 -4 18 -8 10 -11z m-201 -2 c0 -5 -5 -10 -11 -10 -5 0
-7 5 -4 10 3 6 8 10 11 10 2 0 4 -4 4 -10z m90 -30 c0 -5 12 -10 26 -12 l26
-3 -33 -19 c-17 -10 -29 -14 -25 -7 8 13 -13 15 -33 2 -15 -10 -51 -3 -51 9 0
5 9 6 20 3 15 -4 19 -2 15 10 -4 8 1 17 10 21 9 3 13 11 9 17 -4 8 0 8 15 0
11 -7 21 -16 21 -21z m230 26 c0 -11 -19 -15 -25 -6 -3 5 1 10 9 10 9 0 16 -2
16 -4z m-185 -16 c3 -5 1 -10 -4 -10 -6 0 -11 5 -11 10 0 6 2 10 4 10 3 0 8
-4 11 -10z m-228 -6 c-3 -3 -12 -4 -19 -1 -8 3 -5 6 6 6 11 1 17 -2 13 -5z
m48 -24 c-3 -5 -12 -10 -18 -10 -7 0 -6 4 3 10 19 12 23 12 15 0z m215 -20 c0
-5 -2 -10 -4 -10 -3 0 -8 5 -11 10 -3 6 -1 10 4 10 6 0 11 -4 11 -10z m-85
-28 c-3 -3 -11 0 -18 7 -9 10 -8 11 6 5 10 -3 15 -9 12 -12z m702 -32 c3 -10
2 -11 -4 -4 -4 6 -15 14 -23 17 -11 5 -9 6 4 4 11 -1 21 -9 23 -17z m-903 -4
c-6 -15 -34 -31 -34 -19 0 5 30 32 37 33 1 0 0 -6 -3 -14z m31 -6 c3 -5 -1
-10 -10 -10 -9 0 -13 5 -10 10 3 6 8 10 10 10 2 0 7 -4 10 -10z m295 -4 c0
-11 -19 -15 -25 -6 -3 5 1 10 9 10 9 0 16 -2 16 -4z m-650 -36 c-24 -15 -37
-11 -16 5 11 8 22 12 25 9 3 -3 -1 -9 -9 -14z m547 14 c-3 -3 -12 -4 -19 -1
-8 3 -5 6 6 6 11 1 17 -2 13 -5z m313 -4 c-8 -5 -26 -9 -40 -9 -23 1 -23 2 5
9 43 11 52 11 35 0z m160 -5 c7 -8 9 -23 6 -32 -6 -14 -9 -15 -15 -4 -12 19
-21 18 -33 -3 -8 -15 -12 -16 -19 -5 -19 30 -10 42 27 36 33 -6 35 -5 18 8
-11 8 -14 15 -8 15 6 0 17 -7 24 -15z m-85 -15 c3 -5 1 -10 -4 -10 -6 0 -11 5
-11 10 0 6 2 10 4 10 3 0 8 -4 11 -10z m519 -16 c22 -9 20 -21 -5 -27 -13 -3
-18 -10 -14 -17 5 -7 -3 -6 -20 3 -25 12 -32 12 -66 -4 -26 -13 -45 -16 -60
-11 -22 8 -21 9 10 20 18 6 30 16 27 21 -4 6 5 9 21 7 22 -1 79 7 90 13 1 1 8
-2 17 -5z m-655 -41 c-11 -18 -17 -33 -12 -33 9 0 -19 -20 -29 -20 -4 0 0 20
8 44 11 33 20 44 34 43 18 -1 18 -2 -1 -34z m-332 -17 c0 -8 -8 -11 -20 -8
-14 4 -16 7 -5 13 19 12 25 11 25 -5z m838 -26 c3 -5 2 -10 -4 -10 -5 0 -13 5
-16 10 -3 6 -2 10 4 10 5 0 13 -4 16 -10z m-1145 -45 c7 -9 8 -15 2 -15 -5 0
-12 7 -16 15 -3 8 -4 15 -2 15 2 0 9 -7 16 -15z m783 -33 c32 -16 25 -33 -16
-35 -17 -2 -23 -6 -19 -17 5 -13 3 -13 -10 -2 -14 11 -16 10 -11 -10 3 -13 1
-19 -4 -12 -9 12 -44 28 -55 26 -5 -1 -8 3 -8 8 0 6 7 10 16 10 11 0 13 6 9
20 -3 10 -1 29 5 40 11 21 12 21 38 4 15 -10 40 -24 55 -32z m-853 18 c0 -5
-4 -10 -10 -10 -5 0 -10 5 -10 10 0 6 5 10 10 10 6 0 10 -4 10 -10z m430 -10
c0 -5 -6 -10 -14 -10 -8 0 -18 5 -21 10 -3 6 3 10 14 10 12 0 21 -4 21 -10z
m-380 -9 c0 -5 -7 -11 -15 -15 -9 -3 -15 0 -15 9 0 8 7 15 15 15 8 0 15 -4 15
-9z m600 -1 c0 -5 -5 -10 -11 -10 -5 0 -7 5 -4 10 3 6 8 10 11 10 2 0 4 -4 4
-10z m-650 -10 c0 -5 -4 -10 -10 -10 -5 0 -10 5 -10 10 0 6 5 10 10 10 6 0 10
-4 10 -10z m305 -30 c3 -6 -1 -7 -9 -4 -18 7 -21 14 -7 14 6 0 13 -4 16 -10z
m285 -85 c-7 -8 -21 -15 -31 -15 -22 0 -34 -17 -17 -23 7 -2 3 -2 -9 -1 -12 2
-25 0 -28 -6 -8 -14 -35 -13 -35 1 0 6 7 9 14 6 11 -4 13 -1 9 11 -3 9 -2 14
2 9 5 -4 15 -1 24 7 14 12 31 18 75 25 5 0 3 -6 -4 -14z m115 -34 c-3 -6 -12
-11 -18 -11 -7 0 -25 -7 -42 -16 l-30 -15 24 25 c13 13 29 22 36 20 7 -3 16 0
20 6 4 6 9 9 12 6 3 -2 2 -9 -2 -15z m385 -81 c0 -5 -5 -10 -11 -10 -5 0 -7 5
-4 10 3 6 8 10 11 10 2 0 4 -4 4 -10z m552 -22 c-18 -18 -15 -27 8 -21 16 4
20 0 20 -21 0 -28 -17 -34 -51 -16 -25 14 -24 35 3 54 27 19 37 21 20 4z
m-902 -17 c-15 -29 -19 -30 -85 -21 l-60 7 55 2 c30 1 64 8 74 16 26 20 29 19
16 -4z m313 -16 c-3 -13 -11 -30 -19 -36 -11 -9 -14 -7 -14 13 0 23 16 48 31
48 3 0 4 -11 2 -25z m327 -19 c0 -18 -30 -30 -43 -17 -5 5 -6 14 -3 20 10 16
46 13 46 -3z m-833 -2 c-3 -3 -12 -4 -19 -1 -8 3 -5 6 6 6 11 1 17 -2 13 -5z
m323 -169 c0 -16 -35 -36 -101 -59 -45 -16 -64 -13 -55 9 2 7 -1 18 -7 24 -8
8 1 11 34 12 24 0 60 6 79 13 47 18 50 18 50 1z m427 -12 c24 -16 26 -16 38 0
16 22 51 22 59 0 8 -20 -16 -41 -54 -49 -14 -3 -33 -17 -43 -30 -17 -23 -17
-24 2 -24 11 0 23 5 26 10 9 14 45 12 45 -3 0 -6 -4 -27 -9 -45 -8 -28 -7 -34
10 -45 33 -20 24 -61 -24 -112 -59 -62 -105 -60 -73 3 16 30 7 52 -21 52 -18
0 -16 13 6 42 22 28 18 68 -7 68 -41 0 -125 -36 -135 -57 -11 -25 -22 -29 -32
-12 -4 5 5 21 20 35 26 24 27 26 9 40 -18 14 -18 15 1 27 10 7 32 25 48 40 23
22 36 27 57 22 24 -5 28 -3 33 25 7 35 9 36 44 13z m-237 -29 c0 -11 -34 -33
-49 -34 -11 0 -10 5 4 20 17 19 45 27 45 14z m510 -18 c0 -25 -12 -46 -26 -46
-9 0 -14 11 -14 30 0 23 4 30 20 30 11 0 20 -6 20 -14z m160 -129 c0 -19 -20
-36 -36 -30 -8 3 -14 14 -14 24 0 14 7 19 25 19 14 0 25 -6 25 -13z m-856 -22
c-4 -8 -10 -12 -15 -9 -14 8 -10 24 6 24 9 0 12 -6 9 -15z m958 -50 c35 -7 53
-38 38 -65 -21 -39 -130 -18 -130 24 0 22 30 54 47 51 10 -2 30 -6 45 -10z
m518 -65 c0 -15 -38 -32 -45 -20 -3 5 -3 15 0 20 8 13 45 13 45 0z m-700 -17
c-1 -23 -19 -46 -47 -61 -36 -20 -51 -15 -45 13 9 47 92 90 92 48z"/>
<path d="M560 2296 c0 -2 7 -9 15 -16 9 -7 15 -8 15 -2 0 5 -7 12 -15 16 -8 3
-15 4 -15 2z"/>
<path d="M785 2250 c-3 -5 -2 -10 4 -10 5 0 13 5 16 10 3 6 2 10 -4 10 -5 0
-13 -4 -16 -10z"/>
<path d="M925 2209 c11 -37 23 -44 70 -44 26 0 51 -7 62 -17 10 -9 20 -17 23
-17 8 0 41 -12 87 -32 28 -11 55 -16 77 -12 31 5 36 3 42 -21 8 -34 46 -35 85
-2 15 13 34 26 40 28 7 2 9 10 5 16 -10 17 -58 15 -82 -3 -29 -22 -36 -18 -33
19 4 43 -3 51 -30 34 -17 -10 -23 -10 -33 4 -7 8 -34 18 -59 21 -40 6 -49 3
-61 -15 -18 -27 -55 -17 -64 17 -5 19 -15 26 -43 30 -20 4 -49 9 -64 12 -27 5
-28 3 -22 -18z"/>
<path d="M4720 2130 c0 -5 7 -10 15 -10 8 0 15 5 15 10 0 6 -7 10 -15 10 -8 0
-15 -4 -15 -10z"/>
<path d="M3100 2105 c0 -8 5 -15 10 -15 6 0 10 7 10 15 0 8 -4 15 -10 15 -5 0
-10 -7 -10 -15z"/>
<path d="M3915 2111 c-7 -12 12 -24 25 -16 11 7 4 25 -10 25 -5 0 -11 -4 -15
-9z"/>
<path d="M1472 2095 c-7 -8 -21 -15 -31 -15 -11 0 -21 -7 -25 -15 -3 -8 -17
-15 -31 -15 -25 0 -37 -29 -12 -31 6 -1 28 -2 47 -4 19 -1 41 -3 48 -3 7 -1
18 -13 24 -27 16 -35 51 -42 84 -16 15 12 33 21 40 21 16 0 19 -26 4 -35 -5
-3 -10 -15 -10 -26 0 -18 4 -20 45 -13 51 7 97 -7 132 -41 12 -11 33 -27 48
-35 26 -14 36 -10 48 23 1 5 15 3 29 -4 22 -9 31 -9 43 1 13 11 15 8 15 -21 1
-42 20 -69 50 -69 13 0 29 8 36 18 7 9 14 12 14 5 0 -7 14 -10 42 -6 41 4 42
4 26 -14 -11 -12 -14 -23 -8 -33 8 -12 13 -11 37 6 15 11 41 24 56 28 15 3 25
11 22 16 -4 6 1 7 11 3 14 -5 16 -3 11 11 -4 9 -1 26 5 36 10 15 10 22 1 31
-18 18 -46 3 -38 -20 4 -14 0 -21 -14 -26 -35 -11 -51 16 -29 50 11 17 7 90
-5 97 -18 11 -87 9 -87 -2 0 -5 -9 -10 -20 -10 -11 0 -20 -6 -20 -14 0 -23
-20 -30 -45 -16 -18 10 -34 10 -66 2 -42 -11 -69 -7 -69 9 0 5 14 12 31 16 33
6 48 28 32 44 -7 7 -16 4 -28 -7 -15 -15 -20 -16 -38 -4 -15 9 -22 10 -25 1
-7 -22 -40 -12 -44 14 -3 15 -1 25 6 25 14 0 37 36 29 44 -11 10 -42 7 -50 -6
-13 -21 -81 -51 -98 -44 -9 3 -29 -1 -44 -8 -25 -13 -54 -9 -52 8 3 21 -2 26
-29 26 -26 0 -31 5 -36 30 -7 33 -39 41 -62 15z m663 -215 c-3 -5 -15 -15 -26
-21 -19 -10 -20 -9 -9 10 6 12 18 21 26 21 8 0 12 -4 9 -10z"/>
<path d="M2080 2105 c0 -13 50 -58 56 -52 12 12 -18 57 -38 57 -10 0 -18 -2
-18 -5z"/>
<path d="M4570 2080 c-7 -4 -19 -6 -27 -3 -7 3 -13 0 -13 -6 0 -13 56 -15 65
-2 8 14 -9 21 -25 11z"/>
<path d="M2290 2069 c0 -6 9 -13 19 -16 11 -3 22 -16 25 -29 7 -27 38 -47 60
-38 11 4 16 19 16 44 l0 38 -39 -5 c-23 -3 -41 -1 -45 6 -9 14 -36 14 -36 0z"/>
<path d="M4680 2070 c0 -5 9 -10 21 -10 11 0 17 5 14 10 -3 6 -13 10 -21 10
-8 0 -14 -4 -14 -10z"/>
<path d="M3470 2060 c0 -5 5 -10 11 -10 5 0 7 5 4 10 -3 6 -8 10 -11 10 -2 0
-4 -4 -4 -10z"/>
<path d="M5006 2061 c-3 -5 3 -20 14 -32 11 -13 19 -19 20 -12 0 6 -5 15 -10
18 -6 4 -8 10 -5 15 3 5 1 11 -4 14 -5 4 -12 2 -15 -3z"/>
<path d="M5467 2063 c-10 -16 11 -39 23 -27 8 8 7 14 -4 23 -8 7 -17 8 -19 4z"/>
<path d="M4830 2046 c0 -22 19 -30 35 -16 22 18 18 30 -10 30 -15 0 -25 -6
-25 -14z"/>
<path d="M1955 2039 c-4 -6 -5 -13 -2 -16 7 -7 27 6 27 18 0 12 -17 12 -25 -2z"/>
<path d="M3677 2021 c-15 -10 -42 -37 -58 -60 -32 -42 -47 -49 -66 -30 -8 8
-14 5 -22 -10 -15 -27 -47 -27 -54 -1 -7 27 -47 27 -47 1 0 -11 -5 -23 -10
-26 -8 -5 -8 -11 0 -20 13 -15 3 -45 -15 -45 -23 0 -28 -21 -9 -36 11 -7 28
-13 39 -12 30 2 88 -12 106 -25 9 -7 19 -25 23 -40 5 -22 10 -26 20 -18 14 12
10 61 -5 61 -5 0 -9 7 -9 15 0 8 5 15 11 15 6 0 17 6 24 14 12 12 12 16 0 26
-23 19 -18 39 10 46 17 4 25 13 25 28 0 39 15 51 45 38 14 -7 35 -12 46 -12
11 0 30 -5 42 -12 12 -7 51 -13 87 -14 36 -1 80 -4 99 -6 21 -2 36 2 38 10 3
6 -3 12 -11 12 -9 0 -33 7 -54 16 l-37 15 25 19 c21 17 22 20 7 20 -12 0 -23
-11 -30 -30 -9 -23 -18 -30 -38 -30 -43 0 -83 61 -51 80 14 8 12 10 -13 9 -16
-1 -43 3 -58 10 -16 6 -29 11 -30 10 -1 0 -15 -9 -30 -18z m60 -38 c-9 -9 -19
-14 -23 -11 -10 10 6 28 24 28 15 0 15 -1 -1 -17z m-192 -114 c7 -11 -22 -49
-37 -49 -12 0 -10 34 4 48 15 15 25 15 33 1z"/>
<path d="M2795 2020 c3 -5 13 -10 21 -10 8 0 12 5 9 10 -3 6 -13 10 -21 10 -8
0 -12 -4 -9 -10z"/>
<path d="M2977 2018 c-10 -5 -17 -21 -17 -38 0 -23 -3 -27 -20 -23 -11 3 -20
1 -20 -5 0 -5 12 -13 27 -17 27 -6 27 -7 9 -21 -11 -8 -28 -14 -38 -14 -49 0
19 -55 76 -62 31 -3 43 0 62 19 29 29 94 33 94 5 0 -9 8 -22 18 -28 28 -18 79
-26 86 -15 4 6 13 8 20 5 7 -3 19 2 26 11 10 12 10 15 -1 15 -35 1 -42 16 -25
51 15 30 15 34 -1 51 -19 21 -33 9 -33 -29 0 -25 -10 -29 -28 -11 -8 8 -15 8
-27 -2 -14 -12 -18 -11 -25 0 -12 20 -110 41 -133 29 -33 -18 -52 16 -22 41
31 26 7 58 -28 38z"/>
<path d="M1034 2012 c-12 -2 -25 -11 -28 -20 -3 -9 -9 -23 -12 -29 -3 -7 1
-13 9 -13 8 0 20 -7 27 -15 11 -13 15 -13 22 -3 8 10 11 10 15 1 2 -7 9 -13
15 -13 6 0 16 -7 22 -16 7 -9 18 -12 29 -8 20 7 23 24 3 24 -7 0 -16 13 -19
29 -7 34 -52 68 -83 63z"/>
<path d="M3402 2003 c14 -17 28 -16 28 1 0 8 -9 14 -19 13 -15 -1 -17 -4 -9
-14z"/>
<path d="M5195 2000 c-3 -11 -18 -23 -31 -26 -20 -5 -24 -11 -20 -28 3 -11 6
-29 6 -38 0 -25 17 -22 23 3 4 16 10 20 24 14 54 -22 73 -24 73 -7 0 12 3 13
12 4 17 -17 78 -16 78 1 0 24 -36 48 -61 43 -13 -3 -40 -2 -59 2 -28 7 -35 13
-33 30 3 27 -4 29 -12 2z"/>
<path d="M530 1994 c0 -14 3 -14 15 -4 8 7 15 14 15 16 0 2 -7 4 -15 4 -8 0
-15 -7 -15 -16z"/>
<path d="M2662 1992 c-23 -15 -2 -42 29 -40 23 2 29 7 29 25 0 17 -6 23 -22
23 -13 0 -29 -4 -36 -8z"/>
<path d="M2010 1980 c0 -5 5 -10 10 -10 6 0 10 5 10 10 0 6 -4 10 -10 10 -5 0
-10 -4 -10 -10z"/>
<path d="M2497 1973 c3 -7 9 -13 14 -13 5 0 9 6 9 13 0 8 -6 14 -14 14 -8 0
-12 -6 -9 -14z"/>
<path d="M3170 1980 c0 -5 15 -10 33 -9 27 0 29 2 12 9 -28 12 -45 12 -45 0z"/>
<path d="M4875 1980 c3 -5 10 -10 16 -10 5 0 9 5 9 10 0 6 -7 10 -16 10 -8 0
-12 -4 -9 -10z"/>
<path d="M2757 1949 c-10 -11 -16 -23 -13 -26 6 -7 85 30 86 40 0 16 -57 6
-73 -14z"/>
<path d="M4065 1960 c-3 -5 -1 -10 4 -10 6 0 11 5 11 10 0 6 -2 10 -4 10 -3 0
-8 -4 -11 -10z"/>
<path d="M2285 1940 c3 -5 10 -10 16 -10 5 0 9 5 9 10 0 6 -7 10 -16 10 -8 0
-12 -4 -9 -10z"/>
<path d="M4745 1940 c3 -5 8 -10 11 -10 2 0 4 5 4 10 0 6 -5 10 -11 10 -5 0
-7 -4 -4 -10z"/>
<path d="M703 1928 c1 -8 -7 -12 -23 -10 -29 3 -90 -27 -90 -45 0 -17 31 -4
51 20 11 14 22 18 37 13 24 -8 28 -26 10 -44 -9 -9 -9 -15 -1 -23 8 -8 13 -5
17 9 4 12 17 22 28 24 30 4 33 23 7 47 -26 24 -40 27 -36 9z"/>
<path d="M840 1932 c0 -12 19 -26 26 -19 2 2 -2 10 -11 17 -9 8 -15 8 -15 2z"/>
<path d="M4355 1930 c-3 -5 -3 -15 1 -21 8 -14 -14 -29 -33 -22 -7 3 -13 11
-13 19 0 20 -9 17 -29 -8 l-18 -22 -19 22 c-23 27 -45 28 -62 2 -11 -18 -10
-20 18 -20 20 0 30 -5 30 -15 0 -7 23 -24 50 -37 28 -13 50 -26 50 -30 0 -14
29 -8 66 13 l37 20 22 -21 c23 -22 23 -22 43 -2 20 20 20 20 40 -1 43 -46 50
-49 74 -32 12 8 30 15 39 15 14 0 29 19 29 36 0 9 -36 4 -47 -7 -13 -13 -65
-1 -60 15 2 6 13 12 25 14 11 2 26 10 34 19 11 14 10 16 -13 10 -21 -5 -28 -2
-39 18 -15 27 -40 34 -40 10 0 -8 -5 -15 -10 -15 -6 0 -20 -11 -32 -25 -24
-28 -43 -33 -34 -10 4 11 -3 17 -25 22 -24 4 -29 10 -26 25 7 27 -43 52 -58
28z"/>
<path d="M4590 1925 c0 -8 5 -15 10 -15 6 0 10 7 10 15 0 8 -4 15 -10 15 -5 0
-10 -7 -10 -15z"/>
<path d="M5420 1931 c0 -30 21 -52 43 -45 36 11 49 39 20 41 -10 1 -28 4 -40
8 -15 5 -23 3 -23 -4z"/>
<path d="M2328 1904 c2 -14 13 -29 23 -35 23 -12 25 -29 3 -29 -9 0 -35 -16
-58 -35 -24 -19 -48 -35 -55 -35 -6 0 -11 -7 -11 -16 0 -11 -6 -14 -22 -8 -21
6 -22 6 -8 -12 46 -58 47 -58 67 -34 10 12 26 26 35 31 15 8 17 6 12 -19 -5
-22 2 -37 30 -71 20 -24 36 -46 36 -50 0 -3 9 -12 20 -19 17 -11 21 -10 27 5
8 21 28 43 39 43 4 0 19 -10 32 -22 17 -16 26 -19 29 -10 7 17 30 15 37 -5 5
-12 9 -14 18 -5 17 17 48 15 48 -3 0 -17 30 -35 58 -35 26 0 51 -29 33 -39 -7
-4 15 -9 48 -10 49 -1 61 1 61 14 0 8 6 15 13 15 16 0 72 49 80 70 3 8 3 -9 0
-37 -4 -45 -2 -53 11 -53 9 0 29 -7 44 -16 19 -11 22 -12 10 -1 -10 8 -18 17
-18 21 0 14 21 4 71 -34 30 -22 63 -40 74 -40 11 0 28 -12 39 -26 19 -26 19
-26 -4 -19 -15 5 -20 4 -16 -4 4 -6 17 -11 28 -11 11 0 27 -8 35 -17 13 -16
14 -16 10 -2 -3 10 5 25 19 38 13 11 24 25 24 31 0 5 5 10 11 10 5 0 7 -5 3
-11 -9 -16 -15 -109 -6 -109 4 0 13 9 20 20 7 11 18 17 27 14 21 -8 19 -23 -2
-19 -10 1 -12 0 -5 -2 6 -3 12 -9 12 -14 0 -4 11 -3 25 3 14 6 25 15 25 20 0
6 5 8 11 6 6 -2 10 -7 9 -12 -2 -11 59 -38 70 -31 5 3 12 1 15 -5 4 -6 3 -10
-2 -9 -22 4 -25 -2 -7 -16 25 -19 31 -19 37 5 4 15 12 18 36 15 23 -2 32 1 36
15 3 11 12 17 19 14 15 -6 50 -64 39 -65 -4 0 1 -4 12 -9 26 -11 88 -12 81 -2
-12 20 36 3 51 -17 12 -18 17 -20 24 -10 6 11 9 10 14 -3 4 -10 13 -14 22 -11
12 5 14 3 8 -6 -4 -8 -2 -16 5 -21 15 -9 81 61 101 107 7 18 19 35 26 38 15 5
18 -11 3 -20 -10 -6 -7 -42 8 -92 9 -28 8 -33 -6 -34 -9 0 -12 -3 -6 -5 7 -3
10 -14 7 -24 -4 -15 0 -20 15 -20 12 0 24 -4 27 -10 3 -5 12 -10 18 -10 7 0 4
5 -5 11 -19 11 -13 39 8 39 7 0 11 -6 8 -14 -3 -7 2 -16 10 -19 10 -4 13 -1
10 7 -3 7 6 20 19 29 13 9 31 22 39 30 24 25 54 29 69 10 9 -11 10 -14 2 -9
-14 8 -17 -13 -7 -50 8 -28 49 -51 66 -36 21 17 95 24 120 11 21 -11 21 -13 4
-19 -17 -6 -17 -7 -2 -23 10 -9 27 -17 39 -17 26 0 72 -29 93 -58 10 -14 22
-20 42 -17 15 2 30 4 34 4 4 1 13 7 20 14 50 45 108 39 127 -14 5 -16 14 -29
19 -29 9 0 62 38 72 51 3 4 20 9 38 12 30 5 34 3 48 -31 8 -20 29 -47 47 -59
32 -22 33 -22 90 -4 58 18 63 21 54 44 -4 9 -6 9 -6 0 -1 -9 -16 -13 -43 -12
-46 1 -47 0 51 30 l44 13 29 -34 c17 -21 32 -31 36 -25 13 19 87 10 117 -13
15 -12 23 -22 17 -22 -6 0 -18 7 -26 16 -9 8 -16 11 -16 5 0 -14 -37 -14 -42
0 -6 18 -57 -1 -64 -24 -4 -12 -16 -35 -27 -51 -12 -17 -20 -40 -19 -53 1 -16
-2 -21 -13 -17 -22 9 -19 2 19 -47 19 -23 32 -47 30 -51 -3 -4 2 -8 10 -8 9 0
16 -4 16 -10 0 -5 12 -10 26 -10 14 0 23 -4 19 -9 -8 -14 31 -23 66 -16 17 4
51 1 76 -5 41 -12 47 -11 74 9 25 19 30 20 35 6 8 -20 34 -20 34 1 0 8 -5 24
-10 35 -7 13 -7 19 0 19 5 0 10 12 10 26 0 17 -4 23 -12 18 -10 -6 -10 -4 0 7
13 14 17 129 4 129 -5 0 -17 -7 -28 -16 -18 -14 -18 -15 6 -4 24 11 24 10 6
-4 -11 -9 -28 -14 -38 -10 -10 3 -33 -2 -51 -10 l-32 -16 30 25 c35 30 82 55
102 55 9 0 13 16 13 55 0 30 -3 55 -8 55 -4 0 -25 -9 -46 -21 -21 -11 -40 -18
-42 -16 -2 2 18 15 46 28 l49 24 1 54 c0 43 -3 52 -15 47 -9 -3 -15 0 -15 10
0 9 5 12 13 8 7 -4 9 -3 4 2 -5 5 -14 9 -20 9 -6 0 -14 11 -17 25 -4 17 -8 21
-14 12 -4 -7 -13 -9 -19 -5 -7 4 -6 0 2 -10 11 -14 11 -21 -4 -43 -9 -14 -20
-22 -23 -18 -4 3 -1 9 6 11 17 6 15 18 -5 39 -13 13 -14 19 -5 22 14 4 7 22
-9 22 -6 0 -7 -5 -3 -11 4 -6 -1 -9 -12 -8 -11 2 -26 -1 -34 -6 -17 -11 -70
-16 -68 -6 2 21 -4 31 -21 31 -11 0 -23 5 -27 11 -4 7 0 9 14 5 11 -4 23 -2
27 4 5 8 11 8 21 -1 11 -9 14 -8 14 4 0 9 5 19 12 23 7 5 8 2 3 -7 -6 -11 -5
-12 5 -2 10 10 11 15 1 27 -7 8 -8 17 -3 20 5 3 8 17 6 32 -2 20 0 24 9 15 17
-17 26 -13 24 9 -1 11 -11 30 -24 42 l-22 21 -12 -47 c-6 -26 -14 -44 -17 -42
-3 3 -10 -2 -17 -11 -9 -12 -16 -13 -31 -5 -10 6 -15 12 -10 12 12 0 -19 30
-57 54 -16 11 -27 14 -27 7 0 -14 -44 -14 -73 0 -20 9 -20 9 -5 -4 19 -15 14
-29 -7 -21 -18 7 -14 -28 5 -43 19 -16 38 -17 22 -1 -7 7 -12 16 -12 22 0 5 3
7 6 3 3 -3 17 -1 31 4 20 7 30 6 47 -8 l21 -18 -19 23 c-17 19 -17 22 -3 22
10 0 17 -5 17 -11 0 -5 4 -8 9 -5 5 3 12 -1 15 -10 3 -8 2 -12 -4 -9 -6 3 -10
1 -10 -4 0 -6 -5 -11 -11 -11 -7 0 -17 -7 -24 -16 -16 -22 -116 -26 -112 -4 3
20 -75 31 -92 13 -8 -9 -8 -13 -1 -13 12 0 40 -24 40 -35 0 -3 -9 -1 -20 5
-11 6 -26 8 -32 4 -7 -5 -8 -3 -3 6 6 10 3 12 -13 8 -12 -4 -20 -2 -17 2 11
18 -21 16 -37 -2 -9 -11 -26 -20 -37 -21 -11 0 -18 -3 -15 -6 2 -2 -6 -16 -18
-30 -13 -14 -15 -19 -5 -12 20 15 22 5 7 -35 -6 -15 -13 -24 -17 -20 -3 3 -13
0 -21 -7 -13 -10 -15 -9 -10 11 4 12 2 20 -3 16 -13 -8 -11 10 3 24 7 7 8 12
4 12 -4 0 4 14 19 31 14 18 24 38 21 46 -4 10 0 13 12 11 9 -2 16 -10 14 -16
-1 -7 5 -12 13 -12 20 0 19 16 -1 24 -8 3 -13 10 -10 15 14 22 -68 -15 -89
-40 -12 -15 -25 -25 -29 -22 -3 3 -15 -2 -26 -12 -11 -10 -23 -15 -27 -12 -3
4 -2 7 4 7 6 0 14 7 17 16 4 12 2 15 -9 10 -12 -4 -13 -2 -2 15 10 16 9 21 -3
29 -8 6 -22 9 -30 8 -8 -2 -20 1 -27 5 -6 4 -19 4 -29 0 -16 -6 -16 -7 0 -12
15 -6 15 -8 -4 -29 -11 -12 -26 -22 -33 -22 -7 0 -6 4 3 10 13 9 13 11 0 20
-22 14 -33 12 -26 -5 3 -8 1 -15 -4 -15 -10 0 -14 13 -11 42 3 23 -16 32 -74
36 -27 2 -56 8 -62 14 -10 8 -13 6 -13 -6 0 -9 6 -16 13 -16 7 0 20 -9 29 -20
16 -17 20 -18 44 -5 15 8 32 11 38 7 6 -4 2 -8 -11 -10 -12 -2 -25 -12 -28
-23 -4 -10 -13 -19 -21 -19 -9 0 -12 5 -8 12 5 7 2 9 -9 5 -8 -3 -21 1 -27 9
-9 10 -9 14 -1 14 6 0 11 5 11 10 0 6 -6 10 -12 9 -29 -3 -40 2 -34 16 3 9 -3
19 -14 25 -14 7 -20 7 -20 0 0 -5 7 -10 15 -10 26 0 -3 -45 -31 -48 -15 -1
-23 2 -19 8 4 6 10 8 14 6 4 -3 13 -1 20 3 20 12 -43 54 -69 46 -11 -3 -20
-11 -20 -18 0 -8 3 -8 12 1 14 14 28 16 28 3 0 -14 -44 -21 -52 -8 -6 9 -8 9
-8 0 0 -6 -15 -14 -32 -18 -18 -4 -43 -13 -56 -21 -25 -17 -42 -11 -42 14 0
13 2 13 14 -3 13 -18 14 -18 25 2 8 16 17 20 33 15 22 -5 22 -5 6 12 -10 9
-22 15 -28 11 -5 -3 -18 3 -30 15 -11 11 -27 20 -35 20 -17 0 -20 16 -5 25 6
3 10 2 10 -3 0 -5 14 -6 33 -3 22 5 32 13 31 24 -2 21 15 22 22 2 4 -8 10 -12
16 -9 5 4 4 13 -5 22 -28 34 -31 45 -9 33 26 -14 53 -51 46 -63 -3 -4 -1 -8 5
-8 5 0 12 4 15 9 11 17 56 19 66 2 8 -14 9 -14 10 2 0 9 5 17 10 17 6 0 10 4
10 10 0 5 -8 6 -17 3 -12 -5 -15 -2 -11 9 4 9 2 20 -4 26 -7 7 -4 10 8 9 10
-1 19 4 19 11 0 7 7 17 15 22 8 5 11 13 6 17 -4 4 -14 0 -21 -11 -8 -11 -20
-16 -30 -12 -21 8 -55 -14 -55 -36 0 -15 -3 -15 -29 -2 -28 14 -50 44 -32 44
5 0 12 -6 14 -12 3 -8 6 -8 6 -2 1 6 -8 21 -18 33 -11 13 -17 29 -14 37 6 17
-1 18 -25 3 -15 -10 -26 -5 -63 30 -49 46 -59 50 -52 21 6 -24 33 -49 33 -31
0 7 5 9 11 5 8 -5 6 -10 -5 -16 -9 -5 -21 -6 -26 -3 -6 3 -13 -1 -16 -9 -3 -9
-16 -16 -28 -15 -21 0 -21 0 2 9 27 11 28 20 3 20 -11 0 -35 -13 -53 -30 -18
-16 -36 -30 -40 -30 -5 0 -8 -4 -8 -10 0 -5 7 -10 15 -10 8 0 15 -7 15 -17 0
-9 3 -14 6 -10 8 8 34 -18 34 -33 0 -6 5 -8 10 -5 6 3 15 3 22 -1 28 -17 -28
-20 -58 -3 -18 10 -42 15 -53 12 -15 -4 -21 -1 -21 11 0 9 5 16 11 16 8 0 7 5
-1 15 -11 13 -10 18 5 29 14 10 16 17 7 32 -6 10 -12 14 -12 7 0 -10 -50 -33
-73 -33 -5 0 6 13 25 28 l36 28 -33 0 c-25 0 -31 -4 -27 -15 4 -10 1 -13 -10
-8 -13 5 -16 0 -13 -25 4 -24 2 -28 -9 -19 -11 9 -15 9 -18 -1 -4 -10 -8 -10
-19 -1 -11 9 -20 8 -39 -2 -33 -19 -50 -18 -50 0 0 23 -49 39 -69 22 -9 -7
-28 -21 -43 -30 -26 -16 -29 -16 -47 2 -19 19 -20 19 -37 -7 -10 -15 -17 -32
-16 -39 5 -22 -13 -21 -31 3 -17 23 -17 24 3 44 20 20 20 20 0 20 -11 0 -20 5
-20 11 0 6 10 8 23 5 12 -3 16 -3 10 0 -7 3 -13 12 -13 20 0 8 -3 14 -7 14
-13 -1 -39 -24 -46 -40 -5 -13 -5 -13 -6 0 -1 19 42 60 62 60 18 0 29 52 17
84 -5 13 -8 26 -7 28 1 2 -4 -4 -11 -12 -7 -8 -15 -25 -19 -37 -6 -26 -18 -30
-26 -9 -3 8 -14 12 -24 10 -13 -4 -23 3 -33 20 -9 18 -22 26 -41 26 -21 0 -26
4 -22 18 3 14 -4 20 -34 28 -40 10 -87 -4 -109 -34 -10 -13 -14 -13 -35 1 -32
23 -49 21 -49 -4 0 -12 -8 -23 -20 -26 -11 -3 -20 -11 -20 -17 0 -6 -11 -13
-25 -14 -31 -2 -32 12 -2 33 20 15 20 16 2 11 -43 -12 -111 -26 -128 -26 -14
0 -16 4 -7 19 14 27 14 29 -20 36 -32 7 -41 32 -15 41 8 4 15 12 15 18 0 26
-21 32 -86 25 -51 -5 -69 -11 -80 -28 -29 -40 -84 -24 -84 24 0 57 -8 66 -48
59 -45 -9 -57 -21 -56 -57 1 -21 -3 -27 -15 -25 -9 2 -15 11 -13 20 1 9 -2 19
-7 23 -6 3 -7 15 -1 29 7 21 6 22 -16 18 -16 -3 -24 0 -24 9 0 8 -8 19 -18 26
-17 10 -18 8 -14 -13z m201 -168 c-10 -10 -59 -17 -59 -9 0 15 44 32 54 22 5
-5 8 -11 5 -13z m642 -15 c29 -23 22 -32 -25 -35 -38 -1 -42 4 -26 35 13 24
22 24 51 0z m112 -61 c-12 -11 -59 -20 -67 -13 -3 4 6 14 21 24 20 14 30 15
40 7 8 -6 10 -14 6 -18z m-454 -22 c41 -22 53 -38 28 -38 -7 0 -18 5 -24 11
-8 8 -22 5 -51 -11 -40 -23 -77 -21 -70 3 3 6 14 13 26 15 12 2 27 12 32 23
13 23 10 24 59 -3z m101 -2 c0 -3 -4 -8 -10 -11 -5 -3 -10 -1 -10 4 0 6 5 11
10 11 6 0 10 -2 10 -4z m140 -35 c0 -17 -18 -21 -24 -6 -3 9 0 15 9 15 8 0 15
-4 15 -9z m100 -15 c0 -9 12 -16 27 -18 17 -2 29 -10 31 -21 4 -19 -18 -19
-55 1 -23 13 -32 52 -13 52 6 0 10 -6 10 -14z m-335 -36 c3 -5 1 -10 -4 -10
-6 0 -11 5 -11 10 0 6 2 10 4 10 3 0 8 -4 11 -10z m465 0 c0 -5 -5 -10 -11
-10 -5 0 -7 5 -4 10 3 6 8 10 11 10 2 0 4 -4 4 -10z m530 -40 c0 -5 -4 -10
-10 -10 -5 0 -10 5 -10 10 0 6 5 10 10 10 6 0 10 -4 10 -10z m-500 -11 c0 -5
4 -8 8 -5 4 2 14 1 22 -5 12 -7 11 -9 -5 -9 -12 0 -27 -6 -34 -12 -11 -11 -13
-10 -8 5 5 12 1 17 -13 17 -11 0 -20 5 -20 10 0 6 11 10 25 10 14 0 25 -5 25
-11z m260 -41 c0 -16 -3 -18 -13 -9 -8 6 -18 7 -23 3 -4 -4 -2 1 5 11 10 12
10 17 2 17 -7 0 -9 5 -6 10 10 16 35 -8 35 -32z m133 30 c4 -10 8 -9 16 2 9
13 11 13 11 -2 0 -19 -20 -32 -65 -42 l-30 -6 27 24 c15 13 24 27 21 30 -4 3
-1 6 5 6 5 0 13 -6 15 -12z m-429 -18 c16 -16 -4 -25 -24 -12 -11 7 -32 12
-47 12 -22 0 -25 2 -13 10 17 10 70 4 84 -10z m726 -12 c0 -6 -7 -5 -15 2 -8
7 -15 17 -15 22 0 6 7 5 15 -2 8 -7 15 -17 15 -22z m-547 -8 c-3 -11 -9 -20
-14 -20 -14 0 -11 28 4 33 6 3 13 6 14 6 0 1 -1 -8 -4 -19z m-113 -9 c0 -6 -4
-13 -10 -16 -5 -3 -10 -2 -10 4 0 7 -8 7 -26 1 -37 -15 -44 -11 -9 5 36 17 55
19 55 6z m188 -56 c-12 -14 -23 -25 -25 -25 -9 0 -1 20 13 34 25 26 36 18 12
-9z m305 -47 c-3 -18 -11 -28 -22 -27 -10 0 -11 2 -3 6 6 2 10 9 7 14 -4 5 0
15 7 23 17 18 17 17 11 -16z m-355 -37 c-15 -5 -19 4 -11 24 6 18 7 18 13 -1
4 -10 3 -21 -2 -23z m412 29 c12 -7 10 -9 -8 -7 -12 0 -22 5 -22 9 0 11 12 10
30 -2z m147 -23 c-3 -7 4 -19 14 -26 11 -6 17 -16 14 -21 -10 -16 -25 -11 -19
5 4 10 0 15 -16 15 -11 0 -18 5 -15 10 3 6 -1 10 -9 10 -8 0 -18 5 -21 10 -4
6 7 10 25 10 23 0 31 -4 27 -13z m183 -3 c0 -2 -7 -4 -15 -4 -8 0 -15 4 -15
10 0 5 7 7 15 4 8 -4 15 -8 15 -10z m-387 -26 c29 -21 37 -41 12 -32 -8 3 -17
0 -20 -8 -7 -19 -35 -19 -35 -1 0 8 5 11 10 8 6 -3 10 -1 10 4 0 6 -9 11 -19
11 -14 0 -18 7 -17 24 1 26 13 25 59 -6z m1202 2 c-3 -5 -10 -10 -16 -10 -5 0
-9 5 -9 10 0 6 7 10 16 10 8 0 12 -4 9 -10z m139 -34 c-3 -7 -15 -12 -27 -13
-21 -2 -21 -1 -3 13 11 8 16 14 12 14 -4 0 -4 5 0 11 8 14 24 -9 18 -25z
m-1144 4 c0 -4 -11 -7 -25 -7 -20 0 -23 2 -14 13 10 13 39 9 39 -6z m240 9
c12 -9 12 -10 -4 -5 -11 4 -23 1 -27 -6 -4 -7 -11 -9 -14 -6 -9 9 3 28 18 28
7 0 19 -5 27 -11z m218 -7 c6 -18 -15 -14 -22 4 -4 10 -1 14 6 12 6 -2 14 -10
16 -16z m-258 -22 c13 -8 13 -10 -2 -10 -9 0 -20 5 -23 10 -8 13 5 13 25 0z
m740 2 c0 -4 -9 -8 -19 -8 -11 0 -17 4 -15 8 3 4 12 8 20 8 8 0 14 -4 14 -8z
m37 1 c-4 -3 1 -12 11 -19 19 -15 5 -19 -17 -5 -12 8 -8 31 6 31 4 0 3 -3 0
-7z m-383 -12 c15 -6 16 -9 5 -13 -8 -2 -25 1 -39 9 -22 11 -22 13 -5 12 11 0
29 -4 39 -8z m-71 -16 c-3 -9 -8 -14 -10 -11 -3 3 -2 9 2 15 9 16 15 13 8 -4z
m77 -18 c0 -4 5 -5 11 -1 8 4 8 0 0 -15 -14 -25 -23 -28 -14 -4 4 11 3 14 -5
9 -7 -4 -12 -2 -12 4 0 8 -6 8 -20 0 -23 -12 -18 -32 5 -23 11 4 13 1 9 -11
-4 -10 -1 -16 7 -16 7 0 10 -3 7 -6 -4 -3 -19 1 -35 9 -15 8 -34 12 -40 10 -7
-3 -13 0 -13 5 0 6 9 13 19 17 11 3 22 12 25 20 6 15 56 17 56 2z m-115 -8
c-4 -6 -10 -8 -13 -5 -3 3 -12 0 -21 -7 -14 -11 -14 -10 -2 6 14 18 47 24 36
6z m715 7 c0 -2 -7 -7 -16 -10 -8 -3 -12 -2 -9 4 6 10 25 14 25 6z m-1020 -26
c8 -5 11 -10 5 -10 -5 0 -17 5 -25 10 -8 5 -10 10 -5 10 6 0 17 -5 25 -10z
m980 6 c0 -3 -4 -8 -10 -11 -5 -3 -10 -1 -10 4 0 6 5 11 10 11 6 0 10 -2 10
-4z m-265 -26 c3 -5 -3 -10 -15 -10 -12 0 -18 5 -15 10 3 6 10 10 15 10 5 0
12 -4 15 -10z m355 0 c0 -5 -5 -10 -11 -10 -5 0 -7 5 -4 10 3 6 8 10 11 10 2
0 4 -4 4 -10z m-740 -10 c8 -5 11 -10 5 -10 -5 0 -17 5 -25 10 -8 5 -10 10 -5
10 6 0 17 -5 25 -10z m624 -4 c-3 -8 -13 -17 -22 -21 -13 -5 -13 -2 3 15 21
24 26 25 19 6z m303 -8 c-3 -8 -6 -5 -6 6 -1 11 2 17 5 13 3 -3 4 -12 1 -19z
m-677 2 c0 -5 -8 -10 -17 -10 -15 0 -16 2 -3 10 19 12 20 12 20 0z m-260 -20
c0 -9 -23 -30 -33 -30 -4 0 -6 4 -2 9 3 6 -3 14 -12 20 -15 8 -12 10 15 9 17
-1 32 -4 32 -8z m173 -10 c-20 -23 -20 -23 -29 -8 -4 6 -3 8 3 5 6 -4 13 0 17
8 3 8 10 15 16 15 5 0 2 -9 -7 -20z m802 -10 c3 -5 -3 -10 -15 -10 -12 0 -19
-4 -16 -9 3 -4 -6 -6 -20 -3 -27 5 -22 17 11 25 32 8 34 7 40 -3z m-875 -4 c0
-3 -4 -8 -10 -11 -5 -3 -10 -1 -10 4 0 6 5 11 10 11 6 0 10 -2 10 -4z m605
-51 c34 -8 67 -33 59 -46 -3 -5 -18 -9 -33 -9 -31 0 -98 61 -86 80 5 8 10 7
18 -3 7 -8 26 -18 42 -22z m200 25 c11 -5 14 -9 6 -9 -7 -1 -11 -7 -7 -16 6
-18 -19 -21 -30 -3 -5 7 -2 9 7 4 8 -4 3 2 -10 13 -20 19 -21 21 -5 20 11 0
28 -4 39 -9z m-120 -10 c3 -5 1 -10 -5 -10 -6 0 -8 -4 -5 -10 3 -5 2 -10 -4
-10 -5 0 -9 9 -8 20 1 21 12 26 22 10z m155 -15 c-7 -9 -15 -13 -19 -10 -3 3
1 10 9 15 21 14 24 12 10 -5z m-75 -105 c-3 -5 -12 -10 -18 -10 -7 0 -6 4 3
10 19 12 23 12 15 0z m-78 -193 c0 -8 -6 -14 -13 -14 -7 0 -10 6 -7 14 3 7 8
13 12 13 4 0 8 -6 8 -13z"/>
<path d="M2415 1920 c-3 -5 1 -10 10 -10 9 0 13 5 10 10 -3 6 -8 10 -10 10 -2
0 -7 -4 -10 -10z"/>
<path d="M4095 1910 c-8 -13 4 -32 16 -25 12 8 12 35 0 35 -6 0 -13 -4 -16
-10z"/>
<path d="M4961 1895 c-26 -28 -24 -30 14 -13 14 6 25 17 25 25 0 19 -12 16
-39 -12z"/>
<path d="M1260 1895 c0 -8 -8 -19 -19 -24 -13 -7 -18 -21 -17 -48 l1 -38 48 2
c26 1 47 -3 47 -8 0 -5 -7 -9 -15 -9 -23 0 -18 -10 27 -52 43 -39 68 -48 68
-24 0 27 33 28 57 1 18 -19 30 -24 48 -19 20 5 27 1 36 -20 7 -14 16 -26 21
-26 18 0 23 6 20 23 -2 9 1 17 7 17 16 0 23 -18 12 -38 -18 -34 15 -55 64 -39
17 6 23 1 34 -28 7 -19 16 -35 21 -35 5 0 12 -16 16 -35 5 -31 10 -35 33 -33
19 2 26 -1 25 -14 -1 -10 2 -15 7 -12 5 3 9 0 9 -5 0 -6 -6 -11 -12 -12 -7 -1
-2 -4 12 -8 14 -4 30 -5 35 -1 6 3 22 -6 36 -21 19 -21 23 -31 15 -39 -8 -8
-6 -9 7 -5 11 5 17 2 17 -6 0 -8 7 -22 15 -33 13 -17 16 -16 56 25 30 31 41
37 37 23 -5 -19 16 -62 27 -56 12 6 25 1 25 -9 0 -5 -5 -7 -12 -3 -6 4 -8 3
-5 -4 9 -14 32 -10 54 9 35 30 41 29 63 -7 23 -37 58 -57 75 -44 6 4 27 10 48
14 21 4 35 11 33 15 -3 4 0 8 7 9 89 13 92 13 74 2 -9 -6 -21 -9 -26 -6 -5 3
-21 -5 -36 -18 -22 -19 -27 -30 -23 -54 2 -17 1 -29 -4 -26 -4 3 -8 -2 -8 -11
0 -10 6 -15 13 -12 9 3 13 -4 12 -22 -1 -29 30 -81 49 -81 7 0 23 -11 36 -25
13 -14 29 -24 35 -21 6 2 17 -5 23 -15 7 -10 21 -19 32 -19 11 0 20 -3 20 -7
0 -14 60 -42 75 -37 23 9 18 30 -12 44 -20 9 -24 14 -13 17 44 13 44 13 22 29
-51 35 25 40 82 5 32 -20 40 -22 66 -11 17 7 30 16 30 20 0 5 9 6 20 3 l21 -6
-21 -14 c-11 -8 -29 -16 -39 -18 -43 -8 -62 -25 -55 -48 14 -44 23 -65 31 -70
9 -6 84 59 77 66 -3 2 3 10 13 18 15 12 16 12 10 -3 -6 -16 25 -58 43 -58 4 0
5 -11 2 -25 -3 -19 0 -25 13 -25 11 0 16 -7 13 -24 -1 -13 3 -30 10 -39 15
-18 42 -12 42 9 0 8 6 14 14 14 8 0 21 3 30 6 10 4 18 -1 22 -12 3 -11 10 -28
15 -39 6 -12 6 -30 1 -45 -7 -20 -4 -28 25 -53 l33 -29 61 26 c62 27 85 33 59
16 -13 -9 -12 -13 8 -28 17 -13 22 -25 18 -45 -7 -40 16 -58 57 -45 17 5 40
12 50 15 16 5 21 16 18 37 -1 4 8 17 20 27 24 21 34 24 24 9 -10 -16 41 -12
55 5 10 12 9 18 -4 31 -9 9 -15 21 -13 28 5 16 38 21 35 5 -2 -7 11 -19 27
-28 l30 -15 -25 -6 c-33 -8 -43 -60 -11 -60 12 0 21 -5 21 -11 0 -8 16 -10 50
-5 47 6 66 -3 40 -19 -29 -18 11 -69 62 -80 17 -4 34 -18 43 -35 19 -36 62
-70 89 -70 12 0 27 -5 34 -12 6 -6 45 -13 86 -14 112 -3 133 -21 100 -85 -9
-19 -13 -41 -9 -59 7 -31 76 -100 99 -100 8 0 17 -6 20 -12 3 -7 4 -1 1 14 -3
17 1 32 11 42 19 20 31 20 68 1 37 -19 39 -19 51 8 19 42 89 17 72 -27 -4 -11
-18 -16 -42 -16 -25 0 -35 -4 -35 -15 0 -9 -11 -20 -24 -26 -30 -14 -41 -58
-18 -76 13 -10 160 -12 660 -13 l642 0 0 51 c0 51 0 51 -18 29 -27 -33 -52
-19 -85 45 -21 42 -25 60 -18 74 14 25 36 32 66 21 52 -20 55 -11 55 156 0
146 -1 154 -20 154 -10 0 -24 9 -30 20 -12 23 -30 27 -30 7 0 -23 -35 -47 -68
-47 -22 0 -32 -5 -32 -15 0 -18 -66 -23 -174 -14 -36 4 -40 2 -49 -26 -12 -37
-23 -45 -65 -45 -23 0 -49 -12 -85 -39 -46 -35 -77 -47 -126 -50 -9 -1 -11 -9
-7 -27 8 -32 -8 -54 -42 -54 -42 0 -73 70 -37 84 9 3 15 19 15 41 0 34 -1 35
-40 35 -44 0 -61 19 -40 45 14 17 5 35 -18 35 -34 0 -67 25 -64 47 2 14 -5 26
-17 33 -12 6 -21 15 -21 20 0 15 26 12 39 -4 7 -8 27 -18 44 -22 18 -3 38 -11
45 -17 21 -17 32 10 32 77 0 48 -3 57 -15 52 -18 -6 -19 7 -4 36 14 26 -4 49
-23 30 -18 -18 -36 -15 -43 8 -3 11 -13 20 -21 20 -8 0 -14 5 -14 11 0 14 -80
5 -89 -10 -4 -5 -20 -8 -36 -7 -58 7 -70 -13 -34 -58 14 -18 30 -26 52 -27 31
0 31 0 7 -10 -25 -10 -70 5 -70 23 0 4 -6 8 -14 8 -10 0 -12 -12 -8 -50 4 -45
3 -50 -16 -50 -15 0 -27 14 -44 50 -13 27 -27 49 -31 50 -7 0 -2 -50 10 -92 3
-11 -1 -18 -10 -18 -8 0 -20 -7 -27 -15 -16 -20 -40 -19 -40 1 0 8 -4 13 -9 9
-5 -3 -13 -1 -16 5 -4 6 -1 9 6 8 20 -5 22 28 4 67 -22 45 -14 65 25 65 17 0
52 5 76 11 46 12 46 12 39 48 -4 20 -11 41 -16 48 -6 6 -12 24 -13 40 -3 25
-7 28 -37 28 -19 0 -41 -7 -49 -17 -9 -9 -32 -18 -50 -20 -27 -3 -36 -9 -38
-26 -2 -12 -11 -22 -20 -23 -11 0 -9 -4 8 -10 13 -6 42 -7 65 -3 36 6 38 5 26
-10 -8 -9 -21 -16 -30 -15 -31 3 -41 -1 -41 -17 0 -10 -6 -14 -15 -11 -8 4
-17 2 -20 -3 -12 -20 -35 -10 -35 15 0 14 -3 25 -7 25 -15 0 -61 -36 -88 -68
-26 -31 -58 -42 -69 -23 -3 5 5 16 19 25 14 9 25 24 25 33 0 15 -1 15 -18 0
-20 -18 -42 -22 -42 -9 0 4 16 23 35 42 34 35 49 64 20 40 -9 -7 -18 -10 -22
-6 -3 3 -1 6 6 6 7 0 9 4 6 10 -7 11 4 13 47 10 14 -1 29 4 33 10 3 5 11 8 16
5 5 -4 9 1 9 11 0 13 -6 15 -32 10 -18 -4 -60 -9 -92 -12 -33 -2 -62 -7 -65
-9 -2 -3 -6 -18 -8 -35 -2 -24 1 -30 17 -30 11 0 20 -4 20 -10 0 -5 -6 -10
-14 -10 -8 0 -18 5 -21 10 -10 17 -19 11 -33 -19 -14 -31 -44 -45 -60 -29 -11
11 -52 1 -52 -13 0 -5 -9 -9 -20 -9 -14 0 -20 -7 -20 -22 0 -30 -15 -54 -24
-39 -4 6 -12 11 -17 11 -6 0 -8 -4 -5 -9 3 -4 -3 -19 -14 -31 -16 -19 -20 -20
-20 -7 0 10 5 17 10 17 6 0 10 14 10 30 0 24 -4 30 -21 30 -11 0 -29 -5 -40
-10 -13 -7 -25 -8 -37 -1 -10 6 -12 11 -4 12 18 2 23 4 64 22 20 9 43 14 51
11 8 -3 18 -1 22 5 3 6 1 11 -5 11 -6 0 -9 4 -6 9 3 4 36 11 74 15 67 7 68 7
70 37 1 17 3 33 4 37 1 4 -1 17 -6 29 -5 15 -12 20 -24 16 -16 -6 -16 -5 1 11
9 9 17 26 17 38 0 11 5 18 13 15 6 -2 12 -11 12 -20 0 -8 4 -19 8 -23 4 -4 7
-2 7 4 0 15 32 16 47 1 12 -12 53 -3 53 12 0 8 -17 26 -54 57 -9 7 -16 8 -16
3 0 -6 -8 -8 -17 -4 -15 5 -14 3 2 -10 16 -12 17 -18 8 -28 -10 -10 -15 -9
-28 1 -8 7 -15 19 -15 26 0 8 -5 14 -11 14 -5 0 -8 4 -4 9 3 5 19 9 36 9 16
-1 35 4 42 11 9 10 6 11 -15 6 -29 -7 -34 1 -30 45 1 8 -1 21 -4 29 -3 11 -8
10 -18 -5 -8 -10 -12 -23 -9 -29 2 -5 -4 0 -15 13 -11 12 -26 22 -34 22 -18 0
-40 -38 -33 -59 5 -15 -4 -17 -91 -16 -53 0 -98 -4 -102 -9 -3 -5 0 -6 6 -2 7
4 12 2 12 -3 0 -6 -7 -11 -15 -11 -9 0 -26 -7 -39 -15 -22 -15 -23 -14 -21 7
1 13 4 23 5 23 1 0 3 15 5 33 l3 33 -70 -6 c-49 -5 -68 -3 -63 4 3 6 12 11 20
11 7 0 16 7 19 16 3 8 11 12 17 8 8 -5 9 -3 4 6 -6 10 -4 12 7 7 9 -3 25 1 37
9 25 18 28 10 6 -13 -19 -18 -13 -28 10 -19 11 4 16 17 15 38 -3 48 1 58 9 23
7 -29 7 -29 19 -9 9 18 8 25 -7 43 -16 19 -19 19 -25 5 -5 -13 -9 -14 -21 -4
-10 9 -15 9 -15 1 0 -6 4 -11 10 -11 5 0 7 -7 4 -15 -4 -8 -10 -15 -16 -15 -5
0 -6 5 -3 10 12 20 -14 9 -29 -11 -11 -16 -21 -20 -41 -15 -18 5 -27 2 -32 -9
-3 -9 -12 -14 -19 -11 -8 3 -14 2 -14 -2 0 -9 -52 -33 -58 -27 -3 3 0 5 7 5 7
0 9 5 6 10 -4 6 1 22 10 36 16 25 16 26 -7 19 -12 -4 -26 -12 -29 -17 -4 -6
-9 -6 -13 1 -8 12 50 42 68 35 6 -2 11 9 11 26 l0 30 -17 -23 -17 -22 5 28 5
28 -35 -32 c-20 -17 -34 -35 -31 -38 2 -4 -5 -13 -17 -20 -11 -7 -17 -8 -13
-2 3 6 1 11 -4 11 -6 0 -11 14 -11 30 0 23 -5 30 -19 30 -11 0 -23 5 -26 10
-10 16 -24 2 -20 -20 3 -14 -1 -17 -13 -13 -10 4 -12 8 -4 11 20 6 3 21 -18
15 -30 -8 -23 -63 8 -63 11 0 9 -5 -8 -20 -13 -11 -29 -20 -35 -20 -17 0 -36
25 -27 35 4 5 1 5 -5 1 -9 -5 -11 -2 -6 10 5 13 2 15 -17 9 -16 -5 -20 -4 -15
5 4 7 2 16 -5 20 -9 5 -9 9 -1 14 6 4 11 2 11 -3 0 -6 8 -11 18 -11 14 0 12 4
-8 20 -16 12 -27 15 -31 8 -4 -6 -13 -7 -20 -2 -10 6 -10 3 1 -11 8 -10 10
-16 4 -12 -11 7 -46 -28 -37 -37 4 -3 -1 -6 -10 -6 -9 0 -17 -4 -17 -10 0 -5
5 -10 11 -10 5 0 7 -5 4 -10 -4 -7 -13 -6 -27 1 -12 7 -18 7 -14 1 3 -6 0 -12
-6 -15 -7 -2 5 -4 27 -3 22 0 45 7 50 14 9 11 14 9 30 -8 14 -16 16 -23 7 -32
-7 -7 -12 -20 -12 -31 0 -10 -5 -15 -10 -12 -6 4 -8 10 -6 14 3 4 -10 7 -29 6
-35 -1 -46 8 -22 19 6 3 1 3 -13 0 -29 -8 -52 -29 -42 -39 4 -5 1 -5 -6 -1 -9
5 -9 12 -2 27 8 15 7 21 -4 25 -8 3 -20 2 -27 -2 -8 -5 -9 -3 -4 6 6 10 4 12
-9 7 -11 -5 -15 -3 -10 5 5 8 2 9 -9 5 -9 -3 -19 -2 -22 4 -4 5 -3 9 2 8 21
-4 43 2 43 12 0 6 -9 8 -22 3 -13 -3 -20 -3 -16 0 3 4 0 19 -8 34 -7 14 -12
28 -10 30 2 2 21 -5 42 -14 22 -9 42 -16 46 -16 4 1 5 -7 3 -17 -3 -16 0 -17
19 -8 20 10 22 14 12 39 -9 24 -15 28 -37 23 -16 -4 -30 -1 -35 6 -4 8 -3 9 4
5 7 -4 12 -3 12 2 0 6 9 8 20 5 18 -5 20 -1 18 42 -3 43 -1 48 19 50 15 1 20
-3 16 -14 -2 -9 3 -4 12 12 8 15 21 27 27 27 9 0 9 3 0 12 -8 8 -15 8 -24 0
-18 -14 -42 4 -55 43 -8 24 -16 30 -41 31 -18 1 -32 -3 -32 -8 0 -5 -5 -6 -10
-3 -6 4 -8 10 -5 15 3 5 1 11 -5 15 -9 5 -12 -1 -9 -21 0 -4 -5 -11 -13 -15
-9 -6 -5 -9 14 -9 39 0 42 -14 9 -49 -28 -30 -61 -41 -61 -20 0 5 6 7 13 3 8
-5 7 -2 -2 9 -8 10 -16 15 -19 13 -2 -3 -13 -1 -23 5 -15 8 -19 6 -19 -8 0
-13 -3 -14 -11 -6 -6 6 -11 23 -11 38 0 24 -3 26 -32 20 -26 -5 -28 -4 -13 5
10 7 29 9 42 6 19 -5 23 -3 19 9 -4 8 -7 15 -8 15 0 0 -16 -4 -34 -10 -28 -7
-33 -7 -28 5 3 9 -1 15 -10 15 -11 0 -13 -6 -9 -20 4 -11 2 -20 -4 -20 -6 0
-10 5 -8 12 1 6 -7 14 -17 16 -15 3 -18 0 -14 -16 4 -16 -2 -24 -24 -35 -19
-9 -26 -17 -19 -22 9 -5 9 -10 0 -21 -6 -7 -15 -11 -20 -8 -5 3 -9 -1 -9 -9 0
-8 7 -17 15 -21 8 -3 14 -2 12 2 -1 4 3 8 8 10 6 1 10 -4 10 -10 0 -8 -16 -14
-42 -14 -43 -2 -57 9 -28 20 23 9 18 26 -8 26 -29 0 -96 -32 -79 -38 17 -5 15
-22 -4 -22 -8 0 -12 5 -9 10 3 6 1 10 -6 10 -7 0 -4 6 7 14 10 8 16 17 12 21
-10 11 -49 -5 -42 -17 4 -6 2 -8 -3 -5 -6 4 -13 0 -17 -8 -3 -8 -12 -15 -19
-15 -26 0 -7 51 22 61 14 5 35 14 46 21 18 10 19 10 6 -5 -7 -10 -9 -17 -3
-17 6 0 18 -3 28 -7 13 -5 15 -3 9 7 -6 10 -1 12 20 7 34 -6 57 1 49 15 -3 5
2 19 13 30 16 20 17 21 1 15 -12 -4 -18 -1 -18 8 0 8 -5 15 -11 15 -6 0 -9 -6
-6 -12 7 -20 -107 -16 -126 4 -9 9 -13 20 -9 24 4 5 -4 0 -18 -11 -24 -19 -66
-45 -73 -45 -2 0 -4 7 -4 15 0 9 6 14 14 11 8 -3 16 1 20 10 3 8 12 13 19 10
8 -3 11 0 8 9 -3 7 -12 16 -20 19 -16 6 -19 36 -4 36 6 0 10 5 10 12 0 6 -9 3
-20 -7 -17 -16 -24 -14 -22 5 1 13 -45 4 -62 -12 -11 -10 -15 -18 -10 -18 6 0
15 5 21 11 6 6 20 8 32 4 25 -8 31 -65 7 -65 -8 0 -18 -9 -21 -20 -3 -11 -12
-20 -20 -20 -10 0 -12 7 -5 29 6 23 5 29 -5 25 -7 -3 -15 2 -18 10 -4 9 -17
16 -30 16 -14 0 -30 7 -37 15 -18 21 -8 50 17 49 13 0 19 4 16 13 -3 7 0 13 6
13 6 0 11 -6 11 -14 0 -7 6 -19 14 -25 10 -9 16 -8 26 4 7 9 21 13 31 10 23
-8 23 -4 5 40 -16 37 -38 49 -29 15 6 -24 -12 -26 -34 -4 -12 12 -14 21 -7 33
15 25 5 51 -19 51 -12 0 -40 3 -61 7 -29 5 -37 3 -32 -6 10 -16 -22 -40 -46
-33 -24 6 -23 22 1 22 14 0 18 5 14 19 -7 27 -26 17 -41 -20 -8 -22 -16 -30
-27 -26 -10 5 -15 0 -15 -13 0 -15 -7 -20 -25 -20 -16 0 -25 6 -25 15 0 9 -10
20 -22 25 -13 5 -17 9 -10 9 6 1 12 6 12 11 0 19 -39 10 -70 -16 l-31 -27 -45
22 c-24 12 -44 24 -44 26 0 3 14 12 30 20 27 14 31 14 36 0 8 -19 24 -20 24
-2 0 8 -18 20 -41 27 -23 8 -43 20 -46 27 -4 9 -13 11 -27 7 -29 -9 -31 -11
-16 -29 8 -9 8 -15 2 -15 -6 0 -14 5 -17 10 -4 6 -11 8 -16 5 -5 -4 -9 0 -9 8
0 16 -29 27 -70 27 -19 0 -29 8 -37 31 -11 28 -16 31 -42 26 -18 -4 -33 -1
-40 7 -13 15 -5 26 19 26 9 0 25 9 35 20 18 20 17 20 -39 15 -31 -2 -56 0 -56
6 0 5 -4 9 -10 9 -5 0 -10 -7 -10 -15z m125 -155 c-27 -12 -35 -12 -35 0 0 6
12 10 28 9 24 0 25 -1 7 -9z m644 -102 c-2 -13 0 -28 4 -34 4 -7 -2 -10 -18
-6 -29 5 -30 10 -9 40 19 28 26 28 23 0z m-249 -8 c0 -17 -7 -20 -41 -20 -45
0 -50 19 -8 31 41 12 49 10 49 -11z m144 -60 c19 -7 26 -17 26 -35 0 -29 -1
-29 -34 -14 -23 11 -40 42 -28 53 7 8 6 8 36 -4z m42 -93 c21 3 40 1 49 -7 14
-12 12 -15 -16 -27 -40 -17 -59 -17 -59 1 0 8 -7 16 -15 20 -8 3 -15 11 -15
18 0 9 3 9 11 1 6 -6 26 -9 45 -6z m114 -7 c0 -6 -7 -13 -15 -16 -8 -4 -12
-10 -9 -15 3 -5 0 -9 -6 -9 -7 0 -9 -8 -5 -20 5 -14 3 -18 -8 -15 -14 6 -20
35 -6 35 4 0 10 11 13 25 6 24 36 36 36 15z m-130 -65 c0 -8 -4 -15 -9 -15
-13 0 -22 16 -14 24 11 11 23 6 23 -9z m416 -1 c-3 -22 -36 -40 -36 -20 0 11
22 33 37 36 1 0 0 -7 -1 -16z m471 -19 c12 -19 19 -34 15 -34 -26 4 -34 -3
-30 -26 6 -30 -7 -33 -22 -6 -13 26 -3 51 18 45 15 -5 16 -4 1 8 -15 12 -22
48 -10 48 3 -1 16 -16 28 -35z m-664 -17 c-8 -14 -19 -8 -20 12 -1 16 1 17 12
7 7 -6 11 -15 8 -19z m421 23 c4 -5 -3 -7 -14 -4 -23 6 -26 13 -6 13 8 0 17
-4 20 -9z m-4 -50 c0 -4 -11 -6 -25 -3 -15 2 -25 0 -25 -7 0 -6 14 -11 31 -11
20 0 28 -4 23 -12 -4 -7 -3 -8 5 -4 6 4 9 11 6 16 -3 4 12 4 32 0 37 -9 57
-30 59 -62 1 -10 -3 -18 -8 -18 -6 0 -7 7 -4 16 5 14 4 15 -9 4 -8 -7 -12 -17
-9 -24 3 -6 -8 4 -25 22 -17 18 -31 30 -31 27 0 -3 -8 -1 -18 4 -12 6 -25 5
-42 -5 -25 -15 -24 -15 13 -10 33 4 37 3 27 -9 -7 -8 -17 -12 -24 -8 -6 4 -5
0 2 -9 10 -13 10 -18 1 -24 -7 -4 -9 -3 -6 3 24 38 -91 5 -134 -38 -11 -11
-22 -19 -25 -17 -7 8 73 84 84 80 14 -4 25 15 12 23 -17 10 8 35 28 28 14 -4
14 -3 3 5 -12 9 -12 13 -2 26 14 17 61 22 61 7z m120 -42 c0 -6 6 -9 14 -6 8
3 20 -1 27 -9 10 -13 14 -12 31 3 16 15 18 15 13 1 -8 -20 -32 -31 -40 -18 -4
6 -13 10 -22 10 -13 0 -13 -3 -3 -15 19 -23 3 -18 -20 7 -22 24 -26 38 -10 38
6 0 10 -5 10 -11z m-172 -79 c-7 -10 -14 -18 -15 -16 -6 6 9 36 18 36 5 0 4
-9 -3 -20z m177 0 c3 -5 1 -10 -4 -10 -6 0 -11 5 -11 10 0 6 2 10 4 10 3 0 8
-4 11 -10z m228 -75 c-3 -9 -8 -14 -10 -11 -3 3 -2 9 2 15 9 16 15 13 8 -4z
m237 5 c-8 -5 -19 -10 -25 -10 -5 0 -3 5 5 10 8 5 20 10 25 10 6 0 3 -5 -5
-10z m-148 -32 c-6 -6 -19 -7 -29 -3 -17 7 -17 8 2 15 24 9 41 2 27 -12z m123
-13 c-16 -13 -38 -31 -47 -40 -25 -21 -51 -10 -36 15 7 10 16 16 20 14 4 -3 8
0 8 6 0 7 7 9 16 6 10 -4 13 -2 8 6 -5 7 -2 9 8 6 8 -4 21 -2 29 3 27 17 24 8
-6 -16z m55 -9 c0 -2 -7 -6 -15 -10 -8 -3 -15 -1 -15 4 0 6 7 10 15 10 8 0 15
-2 15 -4z m-500 -21 c10 -12 10 -15 -3 -15 -8 0 -17 7 -21 15 -3 8 -2 15 3 15
5 0 14 -7 21 -15z m621 -4 c-8 -5 -11 -16 -8 -25 5 -13 3 -14 -13 -4 -17 11
-17 13 -2 25 9 7 22 12 27 13 6 0 4 -4 -4 -9z m-791 -13 c0 -6 -3 -8 -7 -5 -3
4 -18 0 -32 -9 l-26 -15 24 20 c26 24 41 27 41 9z m883 -26 c10 -10 15 -21 11
-24 -3 -3 9 -12 25 -19 32 -14 39 -25 21 -31 -5 -1 -11 -15 -12 -30 -1 -16 -7
-28 -13 -28 -6 0 -19 -16 -29 -35 -13 -23 -22 -31 -27 -24 -5 8 -27 10 -68 6
-55 -5 -60 -4 -51 12 10 21 97 44 103 28 2 -6 20 2 40 18 40 30 42 42 11 59
-25 14 -38 36 -39 64 -1 27 7 28 28 4z m364 12 c-3 -3 -12 -4 -19 -1 -8 3 -5
6 6 6 11 1 17 -2 13 -5z m-1197 -24 c14 -11 17 -18 8 -14 -9 3 -27 0 -40 -6
-19 -10 -21 -10 -10 1 15 16 16 33 0 23 -7 -4 -8 -3 -4 4 10 16 17 15 46 -8z
m711 3 c12 -15 12 -16 -2 -11 -9 4 -27 0 -38 -9 -23 -16 -35 -15 -23 2 5 8 34
28 48 34 1 1 8 -7 15 -16z m-776 -12 c-3 -6 -11 -11 -16 -11 -5 0 -4 6 3 14
14 16 24 13 13 -3z m565 -11 c0 -5 -2 -10 -4 -10 -3 0 -8 5 -11 10 -3 6 -1 10
4 10 6 0 11 -4 11 -10z m575 -4 c25 -1 47 2 49 8 7 16 56 -42 56 -65 0 -17 -3
-18 -20 -9 -16 8 -20 8 -20 -4 0 -8 6 -17 13 -19 6 -3 3 -6 -8 -6 -14 -1 -24
9 -32 30 -9 22 -17 30 -28 25 -9 -3 -18 0 -21 9 -5 11 -10 11 -27 -5 -11 -11
-25 -20 -30 -20 -5 0 -4 -6 2 -13 8 -11 5 -19 -13 -36 -34 -32 -64 -12 -33 21
17 19 49 78 42 78 -3 0 -3 5 0 10 4 6 11 8 16 5 5 -4 29 -7 54 -9z m-382 -2
c-7 -3 -9 -13 -6 -22 4 -15 3 -15 -6 -2 -15 22 -14 30 7 29 9 0 12 -3 5 -5z
m-238 -23 c3 -5 0 -13 -6 -17 -7 -4 -9 -3 -5 4 3 5 0 13 -6 15 -9 4 -10 6 -1
6 6 1 14 -3 18 -8z m260 -21 c3 -5 1 -10 -4 -10 -6 0 -11 5 -11 10 0 6 2 10 4
10 3 0 8 -4 11 -10z m-108 -43 c9 0 10 -4 2 -14 -16 -18 -22 -17 -38 8 -12 20
-11 21 6 14 10 -4 24 -8 30 -8z m325 -39 c-9 -9 -12 -7 -12 12 0 19 3 21 12
12 9 -9 9 -15 0 -24z m728 -27 c0 -6 -4 -13 -10 -16 -5 -3 -10 1 -10 9 0 9 5
16 10 16 6 0 10 -4 10 -9z m-1157 -15 c4 -10 1 -13 -8 -9 -8 3 -12 9 -9 14 7
12 11 11 17 -5z m177 -10 c0 -3 -15 -14 -32 -26 l-33 -22 28 26 c27 25 37 31
37 22z m460 -22 c0 -3 -5 -2 -11 2 -6 3 -15 1 -19 -6 -5 -8 -15 -10 -26 -6
-18 7 -18 8 0 21 13 10 24 11 37 4 11 -5 19 -12 19 -15z m57 -11 c-3 -2 -20
-6 -38 -8 -27 -3 -30 -2 -16 6 9 6 22 7 27 4 6 -3 10 -1 10 5 0 6 5 8 11 5 6
-4 8 -9 6 -12z m-598 -46 c-13 -13 -26 -22 -28 -20 -7 5 31 43 42 43 6 0 -1
-10 -14 -23z m761 -23 c0 -8 -4 -14 -8 -14 -13 0 -53 46 -46 53 9 9 54 -23 54
-39z m-541 0 c2 -2 -5 -4 -17 -4 -24 0 -30 -15 -9 -24 6 -3 1 -3 -13 0 -14 4
-28 12 -32 18 -6 8 -8 8 -8 0 0 -7 -11 -14 -25 -16 -14 -3 -25 -2 -25 1 1 14
16 29 35 34 19 4 86 -2 94 -9z m1121 -119 c0 -8 -4 -15 -9 -15 -13 0 -22 16
-14 24 11 11 23 6 23 -9z m-430 -65 c0 -5 -9 -10 -21 -10 -11 0 -17 5 -14 10
3 6 13 10 21 10 8 0 14 -4 14 -10z m-50 -20 c0 -5 -15 -10 -34 -10 -19 0 -38
-4 -41 -10 -3 -5 -15 -10 -26 -10 -17 0 -18 3 -9 20 8 16 21 20 60 20 28 0 50
-4 50 -10z m415 0 c3 -5 -3 -10 -15 -10 -12 0 -18 5 -15 10 3 6 10 10 15 10 5
0 12 -4 15 -10z m-220 -21 c-7 -10 -35 -1 -35 11 0 5 9 6 20 3 11 -3 17 -9 15
-14z m-191 -30 c-22 -25 -34 -24 -27 1 3 11 12 20 19 20 8 0 14 6 15 13 0 9 2
9 6 -1 3 -7 -3 -22 -13 -33z m1389 -42 c9 -4 17 -14 17 -24 0 -9 12 -27 26
-38 20 -16 25 -27 20 -42 -6 -19 -16 -22 -92 -25 -68 -2 -88 0 -100 13 -28 31
-12 116 28 149 22 17 23 17 53 -5 16 -12 38 -25 48 -28z m-1058 -17 c5 -8 10
-21 11 -29 5 -25 21 -33 44 -21 15 8 26 8 32 2 13 -13 -26 -26 -57 -18 -13 3
-27 2 -30 -4 -4 -7 -12 -7 -23 -1 -12 7 -17 25 -19 61 -1 46 0 50 15 38 9 -7
21 -20 27 -28z m887 34 c7 -7 -2 -44 -11 -44 -15 1 -42 30 -36 39 7 12 38 15
47 5z m-12 -113 c0 -11 -26 -22 -34 -14 -12 12 -5 23 14 23 11 0 20 -4 20 -9z
m-915 -85 c-22 -16 -74 -7 -88 16 -8 12 -5 22 13 41 l25 25 33 -34 c32 -33 33
-36 17 -48z m345 26 c0 -10 -6 -26 -13 -36 -18 -25 -38 -1 -26 32 10 26 39 30
39 4z m-180 -105 c0 -9 -58 -2 -69 9 -3 3 3 12 13 20 17 12 22 12 38 -3 10 -9
18 -20 18 -26z m110 33 c12 -8 12 -10 -3 -16 -20 -7 -47 1 -47 16 0 12 30 13
50 0z m120 -61 c0 -5 -7 -9 -15 -9 -15 0 -20 12 -9 23 8 8 24 -1 24 -14z"/>
<path d="M1950 1454 c0 -8 5 -12 10 -9 6 3 10 10 10 16 0 5 -4 9 -10 9 -5 0
-10 -7 -10 -16z"/>
<path d="M3348 873 c7 -3 16 -2 19 1 4 3 -2 6 -13 5 -11 0 -14 -3 -6 -6z"/>
<path d="M2590 1890 c0 -23 15 -26 35 -6 16 16 10 26 -17 26 -11 0 -18 -7 -18
-20z"/>
<path d="M3300 1885 c-17 -20 7 -29 41 -16 17 7 19 10 7 10 -10 1 -18 6 -18
11 0 15 -16 12 -30 -5z"/>
<path d="M1620 1849 c0 -24 23 -21 28 4 2 10 -3 17 -12 17 -10 0 -16 -9 -16
-21z"/>
<path d="M5037 1839 c-30 -35 -33 -41 -14 -33 16 6 41 -42 27 -51 -6 -4 -17 1
-26 9 -17 17 -34 21 -34 8 0 -16 25 -32 50 -32 32 0 46 10 53 35 4 18 5 18 6
-2 0 -13 5 -23 10 -23 5 0 7 10 3 22 -3 13 -1 19 5 15 11 -7 93 41 93 54 0 4
-24 -1 -52 -12 -67 -24 -65 -24 -60 11 6 41 -24 41 -61 -1z"/>
<path d="M5315 1858 c-90 -23 -148 -77 -96 -91 12 -3 21 -13 21 -22 0 -9 4
-13 10 -10 5 3 17 -3 27 -14 17 -20 17 -20 49 4 l31 24 32 -35 c17 -20 31 -46
32 -57 0 -12 3 -16 6 -9 6 16 42 15 77 -3 15 -8 30 -15 32 -15 11 0 3 99 -8
103 -10 3 -10 7 1 20 7 9 10 24 7 33 -6 15 -8 15 -24 1 -16 -15 -20 -15 -40
-1 -27 19 -28 34 -2 34 24 0 26 15 4 24 -10 4 -22 -1 -29 -11 -12 -17 -15 -16
-39 10 -27 29 -30 30 -91 15z m25 -43 c7 -9 10 -18 7 -21 -10 -11 -37 5 -37
21 0 19 14 19 30 0z m60 -25 c0 -5 14 -17 31 -26 32 -16 30 -29 -6 -36 -12 -2
-28 7 -42 23 -28 33 -29 49 -3 49 11 0 20 -4 20 -10z"/>
<path d="M2755 1850 c-7 -12 2 -12 30 0 19 8 19 9 -2 9 -12 1 -25 -3 -28 -9z"/>
<path d="M765 1830 c3 -5 8 -10 11 -10 2 0 4 5 4 10 0 6 -5 10 -11 10 -5 0 -7
-4 -4 -10z"/>
<path d="M1496 1814 c-10 -26 1 -28 30 -5 l27 21 -26 0 c-14 0 -28 -7 -31 -16z"/>
<path d="M3660 1820 c0 -5 5 -10 10 -10 6 0 10 5 10 10 0 6 -4 10 -10 10 -5 0
-10 -4 -10 -10z"/>
<path d="M3860 1817 c0 -9 -4 -17 -10 -17 -5 0 -10 -4 -10 -10 0 -5 9 -10 20
-10 14 0 19 6 17 20 -4 25 -17 38 -17 17z"/>
<path d="M708 1813 c6 -2 18 -2 25 0 6 3 1 5 -13 5 -14 0 -19 -2 -12 -5z"/>
<path d="M894 1806 c-6 -6 -9 -17 -6 -25 3 -9 -2 -11 -17 -6 -15 4 -23 1 -27
-10 -4 -10 -13 -13 -25 -10 -25 8 -24 -7 1 -30 14 -13 30 -16 57 -13 21 3 47
2 58 -2 13 -5 31 0 52 14 36 24 46 46 27 64 -25 23 -47 9 -23 -15 16 -16 4
-29 -27 -28 -26 0 -33 7 -50 52 -7 16 -12 18 -20 9z m1 -56 c3 -6 -1 -13 -10
-16 -19 -8 -30 0 -20 15 8 14 22 14 30 1z"/>
<path d="M4215 1810 c-3 -5 -1 -10 4 -10 6 0 11 5 11 10 0 6 -2 10 -4 10 -3 0
-8 -4 -11 -10z"/>
<path d="M4772 1812 c-7 -5 -10 -17 -6 -28 3 -11 2 -15 -3 -8 -10 13 -55 26
-47 13 8 -13 -29 -70 -42 -65 -7 3 -15 -2 -18 -9 -3 -8 -12 -12 -21 -9 -10 4
-15 0 -15 -14 0 -28 -17 -37 -35 -19 -8 8 -12 16 -10 19 2 2 -5 4 -15 5 -11 1
-20 -2 -20 -8 0 -5 -9 -9 -19 -9 -10 0 -29 -11 -42 -25 -28 -28 -35 -30 -54
-11 -20 20 -8 58 18 54 11 -2 22 4 25 12 3 8 1 12 -3 8 -4 -4 -18 5 -31 19
-13 14 -24 21 -24 14 0 -6 -7 -11 -15 -11 -9 0 -18 -7 -21 -15 -4 -8 -15 -15
-26 -15 -14 0 -18 5 -14 15 4 11 -2 15 -22 15 -26 -1 -26 -1 -7 -16 13 -10 19
-27 20 -52 0 -36 1 -37 35 -35 37 2 55 -14 39 -34 -12 -13 5 -53 22 -53 6 0
21 -25 35 -55 14 -30 31 -55 37 -55 7 0 6 4 -3 10 -8 5 -11 12 -8 16 9 8 70
-15 80 -30 4 -6 11 1 17 16 8 21 16 26 45 26 31 0 37 -4 53 -38 15 -31 22 -38
40 -34 12 4 24 0 30 -9 4 -8 19 -19 33 -26 23 -11 24 -11 6 3 -16 13 -17 19
-6 46 10 25 16 29 39 24 52 -12 63 -16 81 -34 17 -17 17 -18 -6 -31 -13 -7
-24 -19 -24 -27 0 -8 -6 -12 -15 -9 -8 4 -17 2 -20 -3 -3 -6 -16 -5 -31 0 -17
7 -23 7 -19 0 6 -9 -8 -14 -27 -11 -5 0 -8 -4 -8 -10 0 -6 -7 -9 -15 -5 -16 6
-16 5 -20 -31 -3 -32 11 -29 49 10 25 26 40 33 76 34 25 1 46 7 48 12 2 5 10
7 19 4 13 -5 14 -3 4 15 -12 22 2 32 14 11 4 -6 13 -8 21 -5 19 7 49 -5 34
-14 -15 -9 50 -5 72 5 10 4 15 11 12 16 -2 5 0 18 6 29 9 16 8 25 -1 36 -9 11
-7 14 10 14 17 0 22 -5 19 -21 -2 -18 2 -22 29 -23 17 -1 29 2 27 6 -3 4 8 5
23 2 24 -5 30 -1 40 25 6 17 7 29 2 25 -5 -3 -9 0 -9 5 0 15 43 14 58 -1 9 -9
12 -9 12 0 0 7 7 12 15 12 8 0 15 -7 15 -15 0 -8 9 -15 20 -15 11 0 19 -4 18
-9 -5 -18 14 -13 41 11 63 54 111 68 111 32 0 -17 -16 -19 -23 -1 -3 7 -6 5
-6 -5 -1 -10 -7 -15 -15 -12 -19 7 -28 -35 -10 -53 12 -13 14 -12 12 8 -2 12
3 24 10 26 8 3 12 -8 13 -34 1 -21 1 -42 0 -47 -3 -15 21 -36 40 -36 16 0 19
8 19 59 0 41 -4 60 -14 64 -7 3 -16 22 -20 41 -4 20 -11 36 -16 36 -6 0 -10 7
-10 15 0 8 5 15 10 15 18 0 11 26 -7 26 -10 1 -35 4 -55 9 -47 9 -52 -11 -7
-27 27 -9 29 -12 16 -26 -10 -9 -36 -15 -71 -16 -36 0 -52 -4 -46 -10 6 -6 10
-14 10 -20 0 -5 -3 -7 -6 -3 -3 3 -16 2 -28 -3 -28 -10 -49 19 -52 73 -3 45 7
48 23 7 9 -23 18 -30 37 -30 21 0 26 5 26 26 0 21 4 24 20 19 14 -5 20 -2 20
10 0 9 -4 13 -10 10 -5 -3 -10 1 -10 9 0 18 -21 21 -36 6 -8 -8 -15 -6 -25 6
-8 9 -13 19 -11 21 1 1 2 12 2 23 0 31 -15 24 -30 -15 -14 -36 -24 -43 -35
-25 -3 6 -17 10 -31 10 -19 0 -24 5 -24 23 0 23 -3 24 -65 23 -36 -1 -65 -4
-65 -8 0 -5 5 -8 10 -8 19 0 10 -32 -11 -37 -12 -4 -22 -17 -26 -34 -6 -32
-13 -35 -31 -17 -9 9 -7 14 6 24 15 12 15 15 2 24 -13 9 -13 11 0 20 8 5 21
10 28 10 19 0 -3 36 -26 42 -11 3 -37 -1 -58 -8 -46 -16 -116 -12 -122 6 -3 9
2 11 17 7 20 -5 21 -3 9 11 -7 9 -16 19 -19 22 -11 8 -14 54 -6 68 9 14 -11
16 -31 4z m362 -157 c-4 -8 -10 -13 -15 -10 -4 3 -6 12 -3 20 4 8 10 13 15 10
4 -3 6 -12 3 -20z m16 -35 c0 -5 -4 -10 -10 -10 -5 0 -10 5 -10 10 0 6 5 10
10 10 6 0 10 -4 10 -10z m-70 -20 c13 -8 13 -10 -2 -10 -9 0 -20 5 -23 10 -8
13 5 13 25 0z m240 -30 c0 -5 -7 -7 -15 -4 -8 4 -15 8 -15 10 0 2 7 4 15 4 8
0 15 -4 15 -10z m-359 -38 c-16 -5 -41 5 -41 17 0 7 10 6 26 -1 15 -7 21 -14
15 -16z m89 18 c0 -5 -4 -10 -10 -10 -5 0 -10 5 -10 10 0 6 5 10 10 10 6 0 10
-4 10 -10z m75 -9 c3 -5 1 -12 -4 -15 -5 -3 -11 1 -15 9 -6 16 9 21 19 6z
m-112 -15 c4 -10 1 -13 -9 -9 -15 6 -19 23 -5 23 5 0 11 -7 14 -14z m-115 -26
c-12 -16 -23 -30 -25 -30 -7 0 20 45 31 52 18 13 18 9 -6 -22z m-243 10 c3 -5
1 -10 -4 -10 -6 0 -11 5 -11 10 0 6 2 10 4 10 3 0 8 -4 11 -10z m715 -30 c0
-5 -4 -10 -10 -10 -5 0 -10 5 -10 10 0 6 5 10 10 10 6 0 10 -4 10 -10z m-425
-100 c3 -5 1 -10 -4 -10 -6 0 -11 5 -11 10 0 6 2 10 4 10 3 0 8 -4 11 -10z"/>
<path d="M1425 1800 c3 -5 8 -10 11 -10 2 0 4 5 4 10 0 6 -5 10 -11 10 -5 0
-7 -4 -4 -10z"/>
<path d="M3623 1790 c-30 -12 -29 -34 2 -48 15 -7 25 -20 25 -32 0 -12 5 -30
11 -41 10 -19 12 -19 34 -5 30 20 35 20 35 1 0 -8 -4 -15 -10 -15 -19 0 -10
-17 16 -29 22 -9 30 -8 54 9 15 11 33 20 39 20 6 0 11 5 11 11 0 6 9 24 21 40
25 36 12 63 -27 53 -17 -5 -24 -2 -24 9 0 8 6 18 13 21 6 3 1 3 -13 0 -13 -4
-35 -20 -49 -35 -15 -17 -36 -29 -50 -29 -22 0 -23 1 -8 18 19 20 12 62 -9 62
-8 0 -13 -3 -13 -7 3 -21 -2 -33 -15 -33 -9 0 -12 7 -9 20 6 22 0 23 -34 10z"/>
<path d="M3990 1786 c0 -19 -29 -48 -73 -72 -22 -12 -26 -18 -17 -29 16 -19
63 -25 80 -10 22 19 42 21 68 7 20 -11 22 -11 22 9 0 13 5 19 13 16 7 -3 21 1
30 8 16 12 16 13 -3 18 -24 6 -27 37 -3 37 11 0 14 3 7 10 -6 6 -23 6 -48 -1
-32 -9 -41 -8 -57 7 -18 16 -19 16 -19 0z m80 -66 c0 -5 -4 -10 -10 -10 -5 0
-10 5 -10 10 0 6 5 10 10 10 6 0 10 -4 10 -10z"/>
<path d="M1613 1782 c-9 -6 -4 -13 17 -26 37 -21 59 -12 34 15 -18 20 -32 23
-51 11z"/>
<path d="M5165 1780 c3 -5 8 -10 11 -10 2 0 4 5 4 10 0 6 -5 10 -11 10 -5 0
-7 -4 -4 -10z"/>
<path d="M775 1770 c3 -5 8 -10 11 -10 2 0 4 5 4 10 0 6 -5 10 -11 10 -5 0 -7
-4 -4 -10z"/>
<path d="M4810 1766 c0 -2 7 -9 15 -16 12 -10 15 -10 15 4 0 9 -7 16 -15 16
-8 0 -15 -2 -15 -4z"/>
<path d="M4890 1761 c0 -6 5 -13 10 -16 6 -3 10 1 10 9 0 9 -4 16 -10 16 -5 0
-10 -4 -10 -9z"/>
<path d="M3260 1751 c0 -17 15 -19 35 -5 18 13 18 14 -8 14 -15 0 -27 -4 -27
-9z"/>
<path d="M1100 1730 c20 -13 43 -13 35 0 -3 6 -16 10 -28 10 -18 0 -19 -2 -7
-10z"/>
<path d="M4140 1730 c0 -5 7 -10 15 -10 8 0 15 5 15 10 0 6 -7 10 -15 10 -8 0
-15 -4 -15 -10z"/>
<path d="M4210 1710 c-7 -16 -19 -30 -27 -30 -8 0 -12 -4 -9 -9 8 -12 47 -2
65 17 12 12 15 12 23 -2 5 -9 19 -16 31 -16 20 1 20 2 -5 16 -16 8 -28 21 -28
28 0 11 -20 26 -35 26 -1 0 -8 -13 -15 -30z"/>
<path d="M98 1723 c7 -3 16 -2 19 1 4 3 -2 6 -13 5 -11 0 -14 -3 -6 -6z"/>
<path d="M154 1714 c3 -9 6 -18 6 -20 0 -2 7 -4 15 -4 13 0 13 3 3 20 -15 24
-33 27 -24 4z"/>
<path d="M1700 1721 c0 -6 4 -13 10 -16 6 -3 7 1 4 9 -7 18 -14 21 -14 7z"/>
<path d="M5121 1714 c0 -11 3 -14 6 -6 3 7 2 16 -1 19 -3 4 -6 -2 -5 -13z"/>
<path d="M2098 1711 c-21 -7 -12 -23 25 -38 15 -7 27 -17 27 -23 0 -6 4 -9 9
-6 13 9 1 46 -15 46 -7 0 -17 6 -21 14 -5 7 -15 11 -25 7z"/>
<path d="M1055 1700 c-4 -6 3 -10 14 -10 25 0 27 6 6 13 -8 4 -17 2 -20 -3z"/>
<path d="M5356 1671 c16 -32 44 -60 44 -43 0 5 -7 15 -15 22 -8 7 -15 21 -15
31 0 11 -6 19 -14 19 -12 0 -12 -4 0 -29z"/>
<path d="M4111 1676 c-9 -11 -8 -15 5 -20 26 -10 32 -7 27 14 -6 23 -16 25
-32 6z"/>
<path d="M1223 1662 c19 -21 22 -37 5 -26 -7 4 -8 3 -4 -4 8 -14 36 -4 36 12
0 16 -21 36 -39 36 -12 0 -11 -3 2 -18z"/>
<path d="M1085 1639 c-4 -6 -5 -13 -2 -16 7 -7 27 6 27 18 0 12 -17 12 -25 -2z"/>
<path d="M3435 1640 c-10 -17 22 -47 35 -34 7 7 4 16 -9 28 -14 12 -21 14 -26
6z"/>
<path d="M180 1630 c0 -5 5 -10 10 -10 6 0 10 5 10 10 0 6 -4 10 -10 10 -5 0
-10 -4 -10 -10z"/>
<path d="M3550 1626 c0 -8 4 -17 9 -20 5 -4 7 3 4 14 -6 23 -13 26 -13 6z"/>
<path d="M4230 1630 c0 -5 7 -10 16 -10 8 0 12 5 9 10 -3 6 -10 10 -16 10 -5
0 -9 -4 -9 -10z"/>
<path d="M1300 1606 c0 -16 -2 -17 -17 -5 -16 13 -17 12 -4 -4 17 -22 57 -46
46 -27 -5 9 -1 10 16 6 13 -3 18 -3 11 0 -6 3 -9 11 -6 16 5 7 2 8 -5 4 -7 -5
-18 0 -26 10 -14 18 -14 18 -15 0z"/>
<path d="M3862 1608 c4 -10 48 -32 48 -23 0 2 -7 11 -16 19 -18 19 -37 21 -32
4z"/>
<path d="M4183 1613 c4 -3 1 -13 -6 -21 -10 -13 -9 -14 1 -8 8 5 20 2 30 -8
16 -14 18 -13 17 9 -1 14 -5 28 -10 32 -4 5 -5 3 -1 -4 3 -6 2 -14 -4 -18 -5
-3 -10 1 -10 9 0 9 -5 16 -12 16 -6 0 -8 -3 -5 -7z"/>
<path d="M4281 1599 c-27 -22 -23 -36 7 -20 13 7 22 7 30 -1 9 -9 12 -9 12 0
0 7 -7 15 -15 18 -8 4 -12 10 -9 15 8 13 2 10 -25 -12z"/>
<path d="M5475 1610 c3 -5 8 -10 11 -10 2 0 4 5 4 10 0 6 -5 10 -11 10 -5 0
-7 -4 -4 -10z"/>
<path d="M2260 1600 c0 -5 5 -10 10 -10 6 0 10 5 10 10 0 6 -4 10 -10 10 -5 0
-10 -4 -10 -10z"/>
<path d="M770 1590 c0 -5 5 -10 11 -10 5 0 7 5 4 10 -3 6 -8 10 -11 10 -2 0
-4 -4 -4 -10z"/>
<path d="M1530 1578 c0 -19 2 -20 10 -8 13 19 13 30 0 30 -5 0 -10 -10 -10
-22z"/>
<path d="M3696 1585 c-13 -14 -19 -15 -31 -5 -12 10 -15 9 -15 -3 0 -24 16
-29 49 -15 22 9 28 17 22 26 -6 11 -11 10 -25 -3z"/>
<path d="M1176 1575 c4 -8 8 -15 10 -15 2 0 4 7 4 15 0 8 -4 15 -10 15 -5 0
-7 -7 -4 -15z"/>
<path d="M58 1573 c7 -3 16 -2 19 1 4 3 -2 6 -13 5 -11 0 -14 -3 -6 -6z"/>
<path d="M3485 1570 c-3 -6 1 -13 10 -16 13 -5 13 -9 3 -21 -10 -13 -9 -15 7
-12 27 6 32 59 5 59 -10 0 -22 -5 -25 -10z"/>
<path d="M5 1550 c-8 -13 3 -30 18 -29 9 0 9 2 0 6 -18 7 -16 21 5 26 15 4 15
5 0 6 -9 0 -20 -3 -23 -9z"/>
<path d="M1590 1545 c7 -8 17 -15 22 -15 5 0 3 7 -6 15 -8 8 -18 15 -22 15 -3
0 -1 -7 6 -15z"/>
<path d="M3725 1549 c-10 -15 1 -23 20 -15 9 3 13 10 10 16 -8 13 -22 13 -30
-1z"/>
<path d="M4250 1550 c0 -5 5 -10 10 -10 6 0 10 5 10 10 0 6 -4 10 -10 10 -5 0
-10 -4 -10 -10z"/>
<path d="M170 1540 c8 -5 20 -10 25 -10 6 0 3 5 -5 10 -8 5 -19 10 -25 10 -5
0 -3 -5 5 -10z"/>
<path d="M1586 1516 c7 -19 4 -19 -29 -7 -19 7 -27 6 -30 -3 -4 -9 2 -12 18
-10 16 1 22 -2 19 -11 -3 -7 -1 -16 5 -20 6 -3 11 1 11 10 0 9 4 14 8 11 4 -2
8 4 9 14 1 11 -2 22 -8 25 -5 3 -6 -1 -3 -9z"/>
<path d="M42 1509 c6 -17 46 -31 53 -18 4 5 3 8 -2 7 -4 -1 -19 4 -32 11 -18
10 -22 10 -19 0z"/>
<path d="M239 1512 c7 -5 11 -14 8 -19 -3 -5 0 -10 8 -10 8 0 16 6 19 14 3 7
1 13 -3 13 -5 0 -18 3 -28 6 -14 4 -15 4 -4 -4z"/>
<path d="M2327 1506 c-3 -8 -18 -16 -32 -18 -23 -3 -24 -5 -13 -20 7 -9 25
-20 41 -24 22 -5 26 -3 21 9 -4 12 1 15 20 13 17 -2 26 2 26 10 0 8 5 13 11
12 6 -2 13 2 16 9 3 9 -3 9 -27 0 -27 -10 -33 -10 -45 6 -10 15 -14 15 -18 3z"/>
<path d="M2561 1502 c-8 -16 -7 -21 6 -26 9 -4 18 -4 21 -1 3 3 -1 5 -9 5 -10
0 -11 2 -2 8 7 5 9 13 4 21 -7 11 -11 9 -20 -7z"/>
<path d="M151 1489 c0 -13 3 -19 5 -12 3 7 13 9 22 6 18 -7 17 -5 -10 16 -16
12 -18 11 -17 -10z"/>
<path d="M1640 1500 c0 -5 5 -10 11 -10 5 0 7 5 4 10 -3 6 -8 10 -11 10 -2 0
-4 -4 -4 -10z"/>
<path d="M2655 1490 c3 -5 8 -10 11 -10 2 0 4 5 4 10 0 6 -5 10 -11 10 -5 0
-7 -4 -4 -10z"/>
<path d="M2875 1490 c-3 -5 -1 -10 4 -10 6 0 11 5 11 10 0 6 -2 10 -4 10 -3 0
-8 -4 -11 -10z"/>
<path d="M2472 1460 c-7 -11 -8 -20 -3 -20 9 0 24 30 18 36 -1 2 -8 -6 -15
-16z"/>
<path d="M30 1467 c0 -5 5 -17 11 -29 9 -18 8 -19 -10 -13 -17 5 -20 3 -14
-11 4 -10 2 -15 -3 -11 -5 3 -11 -5 -12 -19 -2 -27 10 -31 28 -10 6 8 19 12
28 9 14 -4 15 -3 2 5 -8 6 -19 8 -25 5 -5 -4 -2 3 8 15 18 19 18 22 3 44 -9
12 -16 19 -16 15z"/>
<path d="M100 1462 c0 -5 7 -12 15 -16 8 -3 15 -12 15 -21 0 -8 4 -15 8 -15 5
0 17 -7 28 -16 16 -13 16 -15 2 -10 -10 3 -18 1 -18 -4 0 -11 23 -13 33 -3 4
3 0 14 -9 24 -15 17 -15 18 10 13 40 -7 31 4 -21 28 -27 12 -51 24 -55 26 -5
2 -8 -1 -8 -6z"/>
<path d="M180 1455 c7 -9 22 -12 40 -9 17 4 31 1 35 -7 6 -8 4 -10 -4 -4 -9 5
-12 2 -9 -11 2 -11 11 -19 20 -19 9 0 20 -4 24 -8 4 -4 -1 -7 -12 -7 -16 0
-16 -2 -4 -10 18 -11 22 -7 25 24 2 15 -3 27 -13 31 -14 5 -14 7 -2 15 10 6 5
9 -16 8 -17 -1 -36 2 -43 6 -6 4 -11 2 -11 -5 0 -10 -3 -10 -12 -1 -17 17 -33
15 -18 -3z"/>
<path d="M1492 1450 c0 -14 2 -19 5 -12 2 6 2 18 0 25 -3 6 -5 1 -5 -13z"/>
<path d="M2768 1463 c7 -3 16 -2 19 1 4 3 -2 6 -13 5 -11 0 -14 -3 -6 -6z"/>
<path d="M2640 1452 c0 -4 5 -13 11 -19 12 -12 49 -6 49 9 0 5 -4 6 -10 3 -5
-3 -19 -1 -30 5 -11 6 -20 7 -20 2z"/>
<path d="M1625 1433 c2 -10 4 -20 4 -22 2 -7 31 22 31 30 0 5 -9 9 -19 9 -13
0 -18 -6 -16 -17z"/>
<path d="M2880 1436 c0 -8 9 -20 21 -26 19 -11 20 -10 10 9 -15 27 -31 36 -31
17z"/>
<path d="M3015 1440 c3 -5 8 -10 11 -10 2 0 4 5 4 10 0 6 -5 10 -11 10 -5 0
-7 -4 -4 -10z"/>
<path d="M5259 1434 c-12 -14 -11 -16 5 -13 11 2 21 10 24 17 5 17 -13 15 -29
-4z"/>
<path d="M1576 1428 c3 -4 14 -13 25 -19 18 -9 19 -8 8 9 -6 10 -18 19 -25 19
-7 0 -11 -4 -8 -9z"/>
<path d="M2982 1417 c7 -12 11 -26 10 -31 -2 -5 4 -4 12 4 13 10 16 10 16 -4
0 -9 -5 -16 -11 -16 -5 0 -7 -5 -4 -10 4 -6 -11 -1 -31 11 -22 12 -33 15 -26
7 7 -8 8 -18 3 -24 -14 -15 -25 -114 -12 -114 10 0 12 4 15 40 1 8 8 14 15 12
9 -2 11 3 7 14 -5 14 -4 15 9 4 12 -10 15 -10 15 0 0 10 3 10 14 1 10 -9 16
-9 21 -1 5 8 11 8 21 -1 16 -13 16 -13 19 18 2 19 -1 22 -21 17 -14 -4 -24 -2
-24 5 0 6 7 8 15 5 8 -4 15 -1 15 5 0 6 -7 11 -15 11 -8 0 -15 5 -15 10 0 6 5
10 11 10 14 0 -29 34 -54 43 -15 6 -16 4 -5 -16z"/>
<path d="M2464 1422 c3 -5 0 -13 -6 -15 -9 -4 -10 -6 -1 -6 17 -1 25 16 12 25
-7 4 -9 3 -5 -4z"/>
<path d="M4394 1419 c-3 -6 -17 -8 -29 -5 -18 5 -25 1 -30 -15 -10 -31 6 -41
44 -28 24 8 29 14 20 20 -11 6 -10 11 6 23 11 9 15 16 8 16 -6 0 -15 -5 -19
-11z m-34 -40 c0 -5 -4 -9 -8 -9 -5 0 -9 7 -9 15 0 8 4 12 9 9 4 -3 8 -9 8
-15z"/>
<path d="M5285 1420 c-3 -5 -21 -10 -38 -10 l-32 -1 25 -14 c14 -8 19 -14 11
-15 -12 0 -12 -3 -3 -12 17 -17 62 6 62 32 0 12 5 18 10 15 6 -3 10 -1 10 4 0
14 -37 14 -45 1z m15 -20 c0 -5 -4 -10 -10 -10 -5 0 -10 5 -10 10 0 6 5 10 10
10 6 0 10 -4 10 -10z"/>
<path d="M2850 1412 c0 -5 7 -9 15 -9 8 0 12 4 9 9 -3 4 -9 8 -15 8 -5 0 -9
-4 -9 -8z"/>
<path d="M4491 1406 c-9 -10 -9 -16 -1 -21 8 -5 8 -10 0 -20 -8 -9 -6 -14 9
-18 17 -4 19 -2 10 20 -6 18 -6 30 2 39 7 8 7 14 1 14 -5 0 -15 -6 -21 -14z"/>
<path d="M4797 1399 c4 -13 8 -18 11 -10 2 7 -1 18 -6 23 -8 8 -9 4 -5 -13z"/>
<path d="M4432 1403 c-10 -4 -10 -8 -1 -19 9 -11 8 -14 -7 -14 -16 0 -17 -2
-4 -10 21 -13 30 -12 28 3 -2 6 3 11 10 9 8 -1 12 4 10 14 -3 19 -16 25 -36
17z"/>
<path d="M4660 1405 c0 -18 19 -40 26 -32 4 4 0 15 -9 24 -9 10 -17 13 -17 8z"/>
<path d="M5360 1402 c0 -9 21 -32 30 -32 3 0 6 9 6 20 0 13 -7 20 -18 20 -10
0 -18 -4 -18 -8z"/>
<path d="M108 1393 c7 -3 16 -2 19 1 4 3 -2 6 -13 5 -11 0 -14 -3 -6 -6z"/>
<path d="M4183 1389 c13 -8 15 -14 7 -23 -8 -10 -4 -12 16 -8 l27 5 -24 18
c-13 10 -28 19 -34 18 -5 0 -2 -4 8 -10z"/>
<path d="M4639 1395 c-1 -5 -1 -13 0 -17 0 -5 -3 -8 -9 -8 -5 0 -10 -7 -10
-16 0 -14 3 -14 15 -4 12 10 15 10 15 -4 0 -18 8 -20 30 -6 12 8 12 10 -4 16
-10 4 -22 16 -26 28 -5 12 -10 17 -11 11z"/>
<path d="M2709 1370 c12 -11 27 -17 33 -14 14 9 -12 34 -36 34 -21 -1 -21 -1
3 -20z"/>
<path d="M4550 1382 c0 -5 9 -17 20 -27 22 -20 26 -14 10 16 -11 19 -30 26
-30 11z"/>
<path d="M90 1369 c0 -6 -7 -9 -15 -6 -8 4 -17 2 -20 -2 -5 -10 18 -21 42 -21
9 0 13 6 10 14 -4 11 -1 13 10 9 11 -4 14 -2 9 5 -9 15 -36 16 -36 1z"/>
<path d="M4526 1372 c-7 -12 6 -27 29 -35 l20 -7 -20 16 c-11 8 -19 20 -17 25
3 11 -5 12 -12 1z"/>
<path d="M216 1361 c-3 -5 1 -11 9 -15 8 -3 15 -1 15 4 0 13 -18 22 -24 11z"/>
<path d="M1711 1344 c0 -11 3 -14 6 -6 3 7 2 16 -1 19 -3 4 -6 -2 -5 -13z"/>
<path d="M3125 1345 c4 -11 9 -30 9 -42 1 -26 4 -27 26 -13 11 7 11 10 2 10
-7 0 -10 5 -7 11 4 6 -3 20 -16 32 -21 20 -22 20 -14 2z"/>
<path d="M130 1340 c0 -5 -8 -10 -17 -11 -11 0 -13 -3 -5 -6 21 -8 13 -25 -10
-19 -13 3 -17 3 -10 0 16 -8 15 -24 -3 -44 -14 -16 -12 -16 22 -10 21 3 37 11
36 18 -2 6 6 16 18 22 17 10 21 8 26 -9 3 -11 9 -19 13 -16 4 3 13 -2 20 -10
7 -8 19 -15 27 -15 7 0 31 -9 52 -19 21 -11 48 -17 59 -14 18 4 20 8 10 27
l-11 21 23 -20 23 -20 -12 23 c-6 12 -18 22 -26 22 -8 0 -14 3 -14 8 3 18 -2
32 -12 32 -5 0 -8 -4 -5 -8 3 -5 -8 -9 -25 -10 -27 -1 -33 11 -8 14 5 1 11 2
14 3 3 0 -5 13 -19 28 -26 28 -49 26 -26 -2 11 -13 9 -15 -14 -15 -32 0 -34
-13 -3 -28 12 -6 17 -11 10 -11 -7 -1 -24 10 -39 24 -20 19 -31 22 -45 15 -23
-13 -39 -13 -39 1 0 5 5 7 12 3 8 -5 9 -2 5 10 -4 10 -7 20 -7 22 0 2 -4 4
-10 4 -5 0 -10 -4 -10 -10z m156 -97 c-10 -10 -19 5 -10 18 6 11 8 11 12 0 2
-7 1 -15 -2 -18z"/>
<path d="M208 1328 c5 -5 16 -8 23 -6 8 3 3 7 -10 11 -17 4 -21 3 -13 -5z"/>
<path d="M320 1330 c0 -5 7 -10 16 -10 8 0 12 5 9 10 -3 6 -10 10 -16 10 -5 0
-9 -4 -9 -10z"/>
<path d="M1575 1327 c7 -18 -11 -32 -20 -17 -8 14 -35 -6 -35 -25 0 -8 -3 -15
-7 -18 -5 -2 -2 -2 5 -1 6 2 12 -4 12 -12 0 -11 6 -14 16 -10 9 3 18 6 20 6 2
0 4 7 4 15 0 8 4 15 9 15 16 0 19 39 5 51 -12 9 -13 9 -9 -4z"/>
<path d="M1646 1321 c-3 -4 6 -13 19 -19 27 -13 48 4 24 19 -18 11 -36 11 -43
0z"/>
<path d="M4935 1316 c11 -8 24 -12 28 -9 11 7 -12 23 -32 23 -11 0 -9 -4 4
-14z"/>
<path d="M1370 1300 c-11 -21 -6 -40 11 -40 5 0 8 14 7 30 -3 36 -4 36 -18 10z"/>
<path d="M1861 1304 c6 -7 7 -19 3 -26 -6 -10 -4 -10 8 0 19 15 14 39 -7 39
-11 0 -12 -4 -4 -13z"/>
<path d="M2850 1308 c0 -9 5 -20 10 -23 13 -8 13 5 0 25 -8 13 -10 13 -10 -2z"/>
<path d="M4900 1310 c0 -5 5 -10 11 -10 5 0 7 5 4 10 -3 6 -8 10 -11 10 -2 0
-4 -4 -4 -10z"/>
<path d="M5361 1317 c-2 -15 19 -47 31 -47 7 0 7 4 -1 14 -7 8 -8 16 -4 18 4
3 3 3 -4 2 -6 -2 -14 2 -17 9 -2 7 -5 8 -5 4z"/>
<path d="M0 1300 c0 -5 10 -10 23 -10 18 0 19 2 7 10 -19 13 -30 13 -30 0z"/>
<path d="M1329 1297 c-21 -17 -18 -66 5 -83 47 -34 72 0 32 43 -14 15 -22 29
-16 31 12 4 14 22 3 22 -5 0 -15 -6 -24 -13z m46 -85 c-3 -3 -11 0 -18 7 -9
10 -8 11 6 5 10 -3 15 -9 12 -12z"/>
<path d="M3335 1301 c-6 -11 9 -23 19 -14 9 9 7 23 -3 23 -6 0 -12 -4 -16 -9z"/>
<path d="M5435 1280 c-17 -18 -33 -26 -46 -23 -22 6 -24 -5 -5 -29 15 -21 27
-24 24 -6 -2 6 8 17 22 25 14 7 21 13 15 13 -15 0 18 20 34 20 7 0 11 -6 8
-14 -3 -8 1 -17 9 -20 21 -8 23 -8 20 7 -11 60 -39 70 -81 27z"/>
<path d="M5515 1300 c3 -5 11 -10 16 -10 6 0 7 5 4 10 -3 6 -11 10 -16 10 -6
0 -7 -4 -4 -10z"/>
<path d="M3031 1292 c-8 -3 -5 -12 10 -28 19 -20 20 -24 6 -24 -9 0 -17 7 -17
15 0 9 -6 12 -17 8 -11 -4 -14 -3 -9 5 5 8 2 10 -8 6 -24 -9 -19 -19 18 -32
34 -13 70 -7 60 9 -3 5 -1 9 4 9 6 0 12 6 15 14 6 14 -37 26 -62 18z"/>
<path d="M2890 1283 c0 -6 8 -17 18 -24 16 -13 16 -13 2 6 -8 11 -16 22 -17
24 -2 2 -3 0 -3 -6z"/>
<path d="M3252 1274 c-7 -8 -8 -14 -3 -14 10 0 25 19 20 25 -2 1 -10 -3 -17
-11z"/>
<path d="M1976 1267 c3 -10 9 -15 12 -12 3 3 0 11 -7 18 -10 9 -11 8 -5 -6z"/>
<path d="M3388 1263 c6 -2 18 -2 25 0 6 3 1 5 -13 5 -14 0 -19 -2 -12 -5z"/>
<path d="M3177 1254 c-12 -13 -8 -20 14 -21 11 -1 19 3 17 9 -5 15 -22 21 -31
12z"/>
<path d="M170 1246 c0 -2 7 -9 15 -16 13 -11 14 -10 9 4 -5 14 -24 23 -24 12z"/>
<path d="M1751 1226 c-7 -8 -8 -17 -3 -20 6 -3 15 1 21 8 7 8 8 17 3 20 -6 3
-15 -1 -21 -8z"/>
<path d="M1911 1226 c2 -2 14 -9 26 -15 19 -10 22 -9 17 4 -4 8 -15 15 -27 15
-11 0 -18 -2 -16 -4z"/>
<path d="M2217 1213 c6 -15 13 -16 31 -4 10 6 7 10 -11 13 -18 4 -24 1 -20 -9z"/>
<path d="M3397 1212 c5 -11 7 -11 14 0 6 9 9 6 9 -11 0 -23 -1 -23 -19 -7 -15
14 -24 15 -38 7 -17 -10 -17 -10 1 -11 14 0 16 -3 7 -13 -8 -11 -4 -13 22 -12
32 2 93 23 69 24 -8 1 -10 6 -6 14 5 7 2 7 -10 -2 -9 -8 -16 -10 -15 -5 4 22
-2 33 -20 31 -12 -1 -17 -6 -14 -15z"/>
<path d="M3470 1225 c0 -2 10 -10 23 -16 20 -11 21 -11 8 4 -13 16 -31 23 -31
12z"/>
<path d="M3581 1204 c0 -11 3 -14 6 -6 3 7 2 16 -1 19 -3 4 -6 -2 -5 -13z"/>
<path d="M5350 1216 c0 -2 7 -6 15 -10 8 -3 15 -1 15 4 0 6 -7 10 -15 10 -8 0
-15 -2 -15 -4z"/>
<path d="M5514 1208 c3 -15 26 -23 26 -8 0 6 -4 9 -9 6 -5 -4 -12 -1 -14 4 -3
6 -4 5 -3 -2z"/>
<path d="M75 1189 c-4 -6 -5 -12 -2 -15 2 -3 7 2 10 11 7 17 1 20 -8 4z"/>
<path d="M235 1190 c3 -6 -1 -7 -9 -4 -12 5 -16 0 -16 -19 0 -14 5 -28 10 -30
6 -3 5 -4 -2 -3 -7 1 -27 -13 -45 -31 -28 -28 -32 -36 -23 -53 13 -24 30 -26
30 -5 0 36 65 5 81 -39 8 -23 19 -36 31 -36 21 0 24 30 6 60 -10 15 -9 22 6
38 11 13 14 22 7 27 -17 10 -13 25 6 18 14 -5 13 -3 -3 14 -10 12 -29 33 -41
47 -20 24 -51 38 -38 16z m25 -80 c11 -7 12 -12 3 -21 -13 -13 -33 -4 -33 17
0 16 9 18 30 4z"/>
<path d="M3610 1186 c0 -9 9 -21 20 -28 11 -7 20 -18 20 -25 0 -7 5 -13 10
-13 18 0 11 17 -20 50 -21 22 -30 27 -30 16z"/>
<path d="M3646 1185 c4 -8 11 -15 16 -15 6 0 5 6 -2 15 -7 8 -14 15 -16 15 -2
0 -1 -7 2 -15z"/>
<path d="M3045 1180 c-3 -6 1 -7 9 -4 18 7 21 14 7 14 -6 0 -13 -4 -16 -10z"/>
<path d="M1935 1170 c3 -5 8 -10 11 -10 2 0 4 5 4 10 0 6 -5 10 -11 10 -5 0
-7 -4 -4 -10z"/>
<path d="M2210 1143 c0 -20 7 -44 16 -54 15 -17 19 -17 45 -3 36 18 37 31 3
46 -18 8 -24 17 -20 30 4 16 2 17 -10 7 -10 -8 -14 -8 -14 0 0 6 -4 11 -10 11
-5 0 -10 -17 -10 -37z"/>
<path d="M124 1157 c-8 -21 2 -35 16 -21 5 5 6 15 0 24 -8 12 -10 12 -16 -3z"/>
<path d="M2287 1156 c-4 -10 -1 -13 8 -9 8 3 12 9 9 14 -7 12 -11 11 -17 -5z"/>
<path d="M370 1151 c0 -6 4 -13 10 -16 6 -3 7 1 4 9 -7 18 -14 21 -14 7z"/>
<path d="M4108 1148 c-15 -11 -15 -15 -2 -26 8 -7 14 -8 14 -3 0 6 7 8 16 4
14 -5 15 -3 5 15 -14 26 -13 25 -33 10z"/>
<path d="M3724 1141 c7 -11 -18 -33 -27 -24 -4 3 -7 4 -7 1 0 -3 12 -13 26
-23 15 -9 23 -12 19 -5 -5 9 -1 10 14 5 16 -5 21 -2 21 10 0 11 -5 15 -15 12
-8 -4 -17 -2 -20 3 -4 6 -1 10 5 10 6 0 8 5 5 10 -3 6 -11 10 -16 10 -6 0 -8
-4 -5 -9z"/>
<path d="M1130 1130 c0 -5 5 -10 11 -10 5 0 7 5 4 10 -3 6 -8 10 -11 10 -2 0
-4 -4 -4 -10z"/>
<path d="M3920 1130 c-9 -6 -10 -10 -3 -10 6 0 15 5 18 10 8 12 4 12 -15 0z"/>
<path d="M3618 1113 c-6 -24 6 -51 16 -35 3 6 2 20 -2 33 -9 22 -9 22 -14 2z"/>
<path d="M3942 1107 c-9 -10 -6 -18 11 -32 31 -27 47 -28 43 -2 -3 12 -5 26
-5 31 -1 5 -4 6 -8 3 -3 -4 -12 -2 -18 3 -9 7 -16 6 -23 -3z"/>
<path d="M0 1090 c0 -13 5 -18 15 -14 12 5 13 10 4 20 -15 19 -19 18 -19 -6z"/>
<path d="M3660 1079 c0 -5 5 -7 10 -4 6 3 10 8 10 11 0 2 -4 4 -10 4 -5 0 -10
-5 -10 -11z"/>
<path d="M4260 1086 c0 -9 50 -12 62 -5 8 6 -1 9 -24 9 -21 0 -38 -2 -38 -4z"/>
<path d="M1986 1065 c4 -8 11 -15 16 -15 6 0 5 6 -2 15 -7 8 -14 15 -16 15 -2
0 -1 -7 2 -15z"/>
<path d="M4064 1065 c11 -8 22 -12 25 -9 6 6 -19 24 -34 24 -5 -1 -1 -7 9 -15z"/>
<path d="M3880 1055 c0 -8 5 -15 10 -15 6 0 10 7 10 15 0 8 -4 15 -10 15 -5 0
-10 -7 -10 -15z"/>
<path d="M4129 1057 c6 -8 9 -17 6 -21 -3 -3 0 -2 6 3 12 10 4 31 -13 31 -7 0
-7 -4 1 -13z"/>
<path d="M400 1046 c0 -21 28 -46 45 -40 8 4 15 1 15 -6 0 -6 5 -8 12 -4 8 5
-2 14 -27 26 -22 9 -34 18 -27 18 7 0 10 5 7 10 -9 15 -25 12 -25 -4z"/>
<path d="M3647 1048 c-3 -10 5 -14 29 -15 19 -1 34 3 34 8 0 5 -6 9 -14 9 -8
0 -21 3 -29 6 -8 3 -17 -1 -20 -8z"/>
<path d="M4295 1046 c-11 -8 -26 -12 -35 -9 -12 4 -12 3 -1 -5 16 -12 46 -5
62 14 15 18 -2 18 -26 0z"/>
<path d="M55 1040 c-4 -7 -1 -16 6 -21 17 -10 26 8 11 23 -6 6 -12 6 -17 -2z"/>
<path d="M4040 1010 c0 -5 5 -10 11 -10 5 0 7 5 4 10 -3 6 -8 10 -11 10 -2 0
-4 -4 -4 -10z"/>
<path d="M4127 999 c-23 -26 -21 -29 8 -16 26 12 31 22 17 31 -5 3 -16 -4 -25
-15z"/>
<path d="M4300 1002 c0 -16 32 -12 37 5 3 7 -4 11 -16 10 -12 -1 -21 -7 -21
-15z"/>
<path d="M3970 1005 c0 -3 7 -14 16 -23 15 -14 16 -14 13 3 -4 17 -29 35 -29
20z"/>
<path d="M2644 975 c8 -8 19 -15 25 -15 6 0 11 -9 11 -20 0 -11 7 -20 15 -20
23 0 14 22 -19 48 -34 25 -55 30 -32 7z"/>
<path d="M475 970 c3 -5 11 -10 16 -10 6 0 7 5 4 10 -3 6 -11 10 -16 10 -6 0
-7 -4 -4 -10z"/>
<path d="M1995 970 c-3 -5 -1 -10 4 -10 6 0 11 5 11 10 0 6 -2 10 -4 10 -3 0
-8 -4 -11 -10z"/>
<path d="M2298 968 c5 -5 16 -8 23 -6 8 3 3 7 -10 11 -17 4 -21 3 -13 -5z"/>
<path d="M4173 961 c-12 -10 -19 -22 -15 -26 4 -4 -10 -5 -30 -1 -45 8 -47 1
-10 -30 30 -27 42 -30 42 -11 0 16 84 51 88 37 5 -13 22 -13 22 0 0 5 -11 12
-24 16 -14 3 -27 12 -30 20 -7 18 -16 17 -43 -5z"/>
<path d="M2081 944 c0 -11 3 -14 6 -6 3 7 2 16 -1 19 -3 4 -6 -2 -5 -13z"/>
<path d="M4420 939 c0 -5 5 -7 10 -4 6 3 10 8 10 11 0 2 -4 4 -10 4 -5 0 -10
-5 -10 -11z"/>
<path d="M2290 932 c0 -12 19 -26 26 -19 2 2 -2 10 -11 17 -9 8 -15 8 -15 2z"/>
<path d="M4015 930 c-3 -5 -1 -10 4 -10 6 0 11 5 11 10 0 6 -2 10 -4 10 -3 0
-8 -4 -11 -10z"/>
<path d="M1485 920 c-3 -5 -1 -10 4 -10 6 0 11 5 11 10 0 6 -2 10 -4 10 -3 0
-8 -4 -11 -10z"/>
<path d="M4465 922 c-20 -14 -47 -64 -42 -77 3 -7 22 -16 41 -19 20 -4 42 -16
49 -26 15 -25 27 -26 27 -2 0 23 23 72 34 72 4 0 5 -11 2 -25 -5 -19 -2 -25 9
-25 27 0 58 36 50 59 -7 22 -39 29 -50 10 -5 -6 -13 -3 -22 10 -8 12 -19 19
-24 16 -5 -4 -9 -1 -9 6 0 9 -3 9 -14 0 -10 -8 -16 -9 -21 -1 -7 12 -16 13
-30 2z"/>
<path d="M100 900 c0 -5 5 -10 10 -10 6 0 10 5 10 10 0 6 -4 10 -10 10 -5 0
-10 -4 -10 -10z"/>
<path d="M2805 891 c-19 -16 -45 -54 -45 -66 0 -2 11 1 25 7 14 6 25 15 25 19
0 4 9 6 20 4 21 -4 27 9 10 20 -6 4 -8 10 -5 15 11 17 -11 18 -30 1z"/>
<path d="M4790 906 c0 -2 7 -7 16 -10 8 -3 12 -2 9 4 -6 10 -25 14 -25 6z"/>
<path d="M2353 879 c-39 -25 -51 -55 -30 -76 13 -14 16 -13 26 6 9 17 16 19
36 11 20 -8 27 -6 35 11 16 30 8 64 -15 67 -11 1 -34 -7 -52 -19z"/>
<path d="M153 878 c-27 -13 -28 -21 -8 -38 12 -10 16 -9 21 6 11 33 13 44 11
43 -1 0 -12 -5 -24 -11z"/>
<path d="M427 850 c-4 -18 -13 -30 -22 -30 -8 0 -15 -4 -15 -9 0 -17 20 -23
35 -11 10 8 30 10 54 6 53 -8 69 11 38 47 -15 19 -32 27 -54 27 -26 0 -31 -4
-36 -30z"/>
<path d="M1472 863 c-7 -7 -9 -13 -5 -13 4 0 0 -5 -10 -11 -14 -8 -15 -14 -7
-24 8 -9 7 -14 -5 -19 -8 -3 -15 -13 -15 -22 0 -13 6 -15 33 -10 17 4 34 11
35 16 5 14 29 37 50 49 14 8 15 12 4 23 -11 11 -15 10 -23 -2 -8 -12 -9 -12
-7 4 4 23 -32 29 -50 9z"/>
<path d="M0 772 c0 -56 3 -102 8 -102 24 1 52 14 52 25 0 7 7 15 15 19 25 9
17 24 -10 18 -39 -7 -54 12 -54 75 0 30 -2 57 -5 61 -3 3 -6 -40 -6 -96z"/>
<path d="M2558 853 c-16 -8 -28 -22 -28 -32 0 -10 -9 -26 -20 -36 -11 -10 -20
-23 -19 -29 0 -6 3 -6 6 2 9 22 73 11 73 -13 0 -7 7 -18 15 -25 8 -7 13 -16
10 -20 -7 -11 15 -26 48 -34 16 -4 27 -2 27 4 0 5 -3 10 -8 10 -4 0 -24 14
-45 31 -36 30 -37 32 -22 55 8 13 17 38 19 54 4 39 -18 52 -56 33z"/>
<path d="M4680 845 c-9 -11 -10 -19 -3 -26 8 -8 13 -5 18 11 9 28 2 35 -15 15z"/>
<path d="M4723 843 c-14 -13 -18 -24 -12 -38 4 -11 8 -16 8 -11 1 6 7 2 14 -8
12 -17 15 -16 45 12 18 17 32 37 32 46 0 22 -61 21 -87 -1z"/>
<path d="M4870 853 c-24 -9 -60 -40 -54 -46 3 -3 -6 -13 -20 -22 -24 -16 -26
-45 -3 -45 6 0 18 -7 27 -15 13 -12 23 -13 42 -6 16 6 29 6 35 0 6 -6 8 1 5
21 -3 23 -1 29 10 25 8 -3 32 -7 54 -8 43 -3 60 -30 25 -40 -19 -5 -20 -7 -5
-36 9 -17 20 -31 25 -31 5 0 15 -11 21 -25 6 -14 15 -25 20 -25 15 0 8 31 -12
58 -21 26 -12 46 17 35 18 -7 16 7 -4 29 -9 10 -17 34 -18 54 -1 37 -37 80
-56 68 -6 -3 -15 -1 -22 5 -17 13 -31 1 -35 -29 -4 -39 -20 -47 -32 -15 -6 16
-9 34 -6 42 3 7 4 13 3 12 -1 0 -9 -3 -17 -6z"/>
<path d="M360 801 c0 -25 6 -27 13 -6 4 8 2 17 -3 20 -6 4 -10 -3 -10 -14z"/>
<path d="M2662 808 c-19 -19 -15 -48 7 -48 25 0 32 11 24 38 -6 25 -14 27 -31
10z"/>
<path d="M260 800 c0 -5 5 -10 11 -10 5 0 7 5 4 10 -3 6 -8 10 -11 10 -2 0 -4
-4 -4 -10z"/>
<path d="M2766 784 c-3 -9 -6 -16 -6 -17 0 -1 11 -2 25 -2 28 0 31 5 13 23
-16 16 -25 15 -32 -4z"/>
<path d="M5067 773 c-10 -10 -8 -23 4 -23 5 0 7 5 3 11 -4 8 1 9 17 4 19 -5
21 -4 9 4 -18 13 -24 13 -33 4z"/>
<path d="M467 757 c-3 -9 -2 -19 3 -22 11 -7 40 5 40 16 0 14 -20 11 -21 -3 0
-7 -4 -4 -8 6 -7 17 -8 18 -14 3z"/>
<path d="M615 760 c3 -5 10 -10 16 -10 5 0 9 5 9 10 0 6 -7 10 -16 10 -8 0
-12 -4 -9 -10z"/>
<path d="M2847 747 c-3 -8 0 -20 6 -26 14 -14 30 -15 22 -1 -3 6 1 10 10 10 9
0 15 6 13 13 -6 17 -44 21 -51 4z"/>
<path d="M2940 729 c0 -4 7 -10 16 -13 24 -9 56 -7 50 3 -7 11 -66 20 -66 10z"/>
<path d="M275 710 c-4 -6 -3 -14 0 -20 9 -15 35 -12 35 4 0 17 -27 29 -35 16z"/>
<path d="M2775 700 c-9 -15 14 -40 36 -40 24 0 24 19 2 36 -22 16 -30 17 -38
4z"/>
<path d="M395 661 c-3 -6 10 -20 29 -32 20 -12 36 -24 36 -28 0 -4 9 -7 21 -8
17 -2 19 0 8 14 -7 8 -18 25 -24 37 -11 23 -59 34 -70 17z"/>
<path d="M70 645 c0 -21 39 -40 54 -25 8 8 6 15 -8 26 -25 18 -46 18 -46 -1z"/>
<path d="M2992 648 c6 -18 28 -21 28 -4 0 9 -7 16 -16 16 -9 0 -14 -5 -12 -12z"/>
<path d="M4950 649 c0 -4 9 -9 20 -12 13 -3 20 0 20 8 0 8 -9 13 -20 12 -11
-1 -20 -4 -20 -8z"/>
<path d="M310 588 c1 -20 33 -55 56 -62 14 -4 27 0 38 13 20 22 14 27 -44 48
-44 16 -50 16 -50 1z"/>
<path d="M4970 589 c0 -5 5 -7 10 -4 6 3 10 8 10 11 0 2 -4 4 -10 4 -5 0 -10
-5 -10 -11z"/>
<path d="M35 552 l-30 -17 28 -3 c30 -4 61 14 51 29 -7 12 -14 11 -49 -9z"/>
<path d="M3370 524 c-24 -63 -2 -125 34 -95 11 9 19 5 39 -18 l25 -30 7 35 c7
39 -19 91 -58 119 -29 21 -36 19 -47 -11z"/>
<path d="M2335 530 c-18 -8 -17 -9 8 -9 15 -1 27 4 27 9 0 12 -8 12 -35 0z"/>
<path d="M4893 495 c-16 -16 -41 -39 -55 -50 -14 -11 -28 -32 -31 -46 l-6 -25
57 27 c31 15 80 33 107 40 28 6 56 13 63 15 6 2 12 12 12 22 0 57 -98 69 -147
17z"/>
<path d="M2455 473 c-29 -31 -40 -65 -31 -89 5 -13 13 -15 39 -9 17 4 46 8 62
9 26 1 30 -3 30 -24 0 -19 -9 -29 -42 -45 -54 -26 -57 -29 -43 -54 21 -40 75
-20 113 41 10 15 28 30 41 34 34 8 62 81 45 118 -14 29 -23 31 -59 11 -37 -21
-64 -18 -90 10 -29 31 -33 31 -65 -2z"/>
<path d="M360 460 c0 -5 5 -10 10 -10 6 0 10 5 10 10 0 6 -4 10 -10 10 -5 0
-10 -4 -10 -10z"/>
<path d="M620 430 c0 -5 5 -10 10 -10 6 0 10 5 10 10 0 6 -4 10 -10 10 -5 0
-10 -4 -10 -10z"/>
<path d="M2 252 c2 -60 6 -77 18 -77 30 0 52 -42 48 -93 -3 -26 -8 -55 -12
-64 -7 -16 0 -18 83 -18 82 0 91 2 91 19 0 32 -22 85 -50 121 -15 20 -31 51
-35 69 -6 29 -10 32 -31 27 -24 -6 -25 -5 -18 29 3 19 5 35 3 35 -2 0 -26 7
-52 15 l-48 14 3 -77z"/>
<path d="M3620 300 c0 -19 3 -21 12 -12 9 9 9 15 0 24 -9 9 -12 7 -12 -12z"/>
<path d="M3916 304 c-9 -8 -21 -35 -27 -60 -12 -48 -25 -54 -65 -28 -32 21
-52 7 -35 -25 18 -33 44 -42 75 -25 16 8 34 14 40 14 18 0 86 73 86 92 0 47
-41 65 -74 32z"/>
<path d="M430 270 c0 -5 10 -10 23 -10 13 0 28 -5 35 -12 7 -7 12 -9 12 -4 0
4 -6 14 -14 22 -17 16 -56 19 -56 4z"/>
<path d="M3462 215 c0 -16 2 -22 5 -12 2 9 2 23 0 30 -3 6 -5 -1 -5 -18z"/>
<path d="M780 174 c0 -4 5 -23 12 -41 9 -26 10 -38 1 -52 -10 -16 -6 -23 20
-48 26 -23 42 -29 82 -31 50 -2 50 -2 23 13 -16 9 -29 21 -29 28 -1 7 -3 26
-5 44 -2 18 1 35 6 38 6 3 10 16 9 28 0 21 -1 21 -9 2 -7 -17 -9 -17 -9 -2 -1
10 -9 17 -20 17 -10 0 -33 3 -50 6 -17 4 -31 3 -31 -2z"/>
<path d="M572 43 c3 -35 6 -38 36 -41 33 -3 33 -3 30 35 -3 35 -6 38 -36 41
-33 3 -33 3 -30 -35z"/>
<path d="M3357 13 c-19 -10 -8 -12 68 -13 54 0 85 4 80 9 -16 15 -124 17 -148
4z"/>
<path d="M460 10 c-11 -7 -6 -10 20 -10 26 0 31 3 20 10 -8 5 -17 10 -20 10
-3 0 -12 -5 -20 -10z"/>
</g>
</svg>
