<?xml version="1.0" standalone="no"?>
<!DOCTYPE svg PUBLIC "-//W3C//DTD SVG 20010904//EN"
 "http://www.w3.org/TR/2001/REC-SVG-20010904/DTD/svg10.dtd">
<svg version="1.0" xmlns="http://www.w3.org/2000/svg"
 width="640.000000pt" height="640.000000pt" viewBox="0 0 640.000000 640.000000"
 preserveAspectRatio="xMidYMid meet">

<g transform="translate(0.000000,640.000000) scale(0.100000,-0.100000)"
fill="#000000" stroke="none">
<path d="M4790 5029 c-63 -4 -261 -15 -440 -24 -667 -33 -634 -30 -695 -60
-60 -29 -92 -64 -127 -141 l-23 -49 0 -1730 c0 -1632 1 -1733 18 -1774 9 -25
28 -59 42 -77 30 -39 107 -91 154 -104 20 -5 180 -19 356 -30 176 -11 442 -29
590 -40 309 -23 356 -24 407 -10 57 16 132 81 162 141 l26 53 0 1815 c-1 1531
-3 1822 -15 1855 -8 22 -11 44 -8 49 4 6 1 7 -7 2 -10 -6 -12 -4 -7 8 4 10 2
16 -6 14 -7 -1 -11 6 -11 15 1 9 -10 27 -24 40 -15 13 -20 15 -13 6 7 -10 9
-18 3 -18 -13 0 -33 25 -26 33 3 3 -5 10 -18 17 -23 11 -23 11 -3 -6 l20 -17
-20 8 c-11 4 -36 14 -55 21 -38 14 -104 15 -280 3z m321 -74 c26 -18 53 -50
68 -80 23 -44 26 -63 29 -176 l4 -126 -174 -7 c-95 -4 -416 -15 -713 -26 -297
-11 -595 -22 -662 -26 l-123 -6 0 103 c0 122 9 161 53 225 57 85 79 91 392
108 149 9 385 20 525 26 140 6 266 12 280 14 14 2 82 3 152 2 123 -1 127 -2
169 -31z m-203 -487 c15 -13 16 -43 2 -69 -15 -27 -64 -25 -84 3 -21 30 -20
44 5 69 20 20 48 19 77 -3z m-234 6 c9 -3 16 -14 16 -23 0 -9 7 -29 15 -44
l14 -28 -37 7 c-45 8 -49 10 -61 33 -7 13 -6 24 5 39 16 23 23 26 48 16z m406
-19 c0 -14 -4 -25 -10 -25 -11 0 -14 33 -3 43 11 11 13 8 13 -18z m-1416 -51
c5 -12 1 -14 -17 -9 -16 5 -18 4 -8 -3 8 -6 11 -17 8 -26 -11 -28 -27 -17 -27
19 0 28 4 35 19 35 10 0 22 -7 25 -16z m70 8 c2 -4 43 -7 90 -5 47 2 87 -1 90
-5 9 -14 -6 -52 -20 -52 -7 0 -20 10 -30 23 l-16 22 5 -22 c3 -16 1 -23 -9
-23 -8 0 -14 10 -15 23 -1 21 -1 21 -7 1 -6 -17 -15 -21 -57 -21 -27 -1 -56 4
-64 11 -12 8 -13 8 -7 -1 4 -8 2 -13 -7 -13 -18 0 -18 31 1 53 16 18 37 22 46
9z m1346 -12 c0 -5 -4 -10 -10 -10 -5 0 -10 5 -10 10 0 6 5 10 10 10 6 0 10
-4 10 -10z m130 -1529 c0 -798 -3 -1452 -7 -1454 -5 -2 -60 0 -123 4 -63 5
-198 13 -300 19 -244 13 -464 27 -1119 68 l-114 7 2 1375 c1 756 4 1377 7
1379 2 2 219 10 482 18 262 7 583 17 712 21 129 5 286 10 348 10 l112 2 0
-1449z m-1253 -1401 c806 -48 1179 -70 1222 -70 l33 0 -4 -102 c-4 -113 -21
-159 -75 -210 -61 -57 -71 -58 -611 -23 -844 55 -795 51 -849 77 -92 46 -133
132 -133 278 l0 70 45 0 c24 0 192 -9 372 -20z"/>
<path d="M4335 4890 c4 -6 11 -8 16 -5 14 9 11 15 -7 15 -8 0 -12 -5 -9 -10z"/>
<path d="M4012 4788 c-17 -17 -15 -43 4 -59 14 -11 19 -10 35 10 30 37 -6 82
-39 49z"/>
<path d="M4308 4791 c-64 -3 -119 -9 -123 -13 -16 -16 9 -27 53 -23 26 3 95 7
155 11 82 5 107 9 107 20 0 10 -11 13 -37 12 -21 -1 -91 -4 -155 -7z"/>
<path d="M4835 4450 c-7 -23 10 -60 29 -60 7 0 21 9 30 19 14 15 15 24 6 40
-14 27 -56 28 -65 1z m45 -16 c0 -8 -4 -14 -10 -14 -5 0 -10 9 -10 21 0 11 5
17 10 14 6 -3 10 -13 10 -21z"/>
<path d="M4634 4445 c-4 -9 -2 -21 4 -27 15 -15 44 -1 40 19 -4 23 -36 29 -44
8z"/>
<path d="M3721 4384 c0 -11 3 -14 6 -6 3 7 2 16 -1 19 -3 4 -6 -2 -5 -13z"/>
<path d="M3650 4213 c-22 -8 -40 -34 -40 -59 0 -25 24 -54 43 -53 9 0 8 2 0 6
-15 5 -17 51 -4 72 8 12 14 13 35 3 28 -12 36 -42 11 -42 -8 0 -15 -5 -15 -11
0 -6 8 -9 18 -7 28 5 28 62 0 82 -24 17 -25 17 -48 9z"/>
<path d="M4244 4098 c-32 -26 -125 -211 -127 -254 -1 -19 -6 -34 -11 -34 -5 0
-6 -3 -3 -7 4 -3 0 -14 -8 -23 -16 -18 -10 -54 6 -44 6 3 7 -6 4 -23 -5 -21
-4 -24 4 -13 17 24 25 3 27 -71 2 -57 -1 -69 -12 -65 -16 6 -18 -3 -5 -23 5
-7 14 -10 20 -7 14 9 14 -5 1 -38 -14 -38 -4 -32 16 9 9 19 22 35 29 35 6 0
20 9 30 20 10 11 23 17 29 14 6 -3 -1 5 -15 18 l-25 23 22 23 22 23 18 -43
c15 -36 18 -39 22 -20 2 13 11 22 21 22 32 0 42 22 29 64 -9 28 -20 41 -40 48
-32 11 -34 16 -12 46 14 20 14 22 -4 22 -11 0 -23 -8 -27 -17 -5 -15 -10 -11
-26 20 -11 21 -19 48 -17 60 3 25 37 35 49 15 6 -9 9 -4 9 15 0 21 -7 31 -29
40 -22 10 -27 16 -21 32 4 11 17 29 29 39 11 11 21 26 21 35 0 11 4 9 16 -7 8
-12 19 -22 24 -22 21 0 86 -54 102 -83 12 -22 17 -26 18 -14 0 14 3 15 13 5
17 -15 11 -46 -16 -75 -16 -18 -19 -32 -15 -74 6 -54 28 -82 40 -50 4 11 11
22 17 25 7 5 6 14 -4 29 -11 17 -12 32 -4 70 6 26 15 47 20 47 16 0 9 25 -30
106 -50 103 -73 124 -134 122 -31 0 -56 -7 -73 -20z"/>
<path d="M4320 3920 c0 -5 9 -10 20 -10 11 0 20 5 20 10 0 6 -9 10 -20 10 -11
0 -20 -4 -20 -10z"/>
<path d="M4260 3837 c0 -10 8 -17 18 -17 9 0 13 4 7 8 -5 4 -13 11 -17 16 -5
5 -8 2 -8 -7z"/>
<path d="M4394 3648 l-19 -23 23 19 c12 11 22 21 22 23 0 8 -8 2 -26 -19z"/>
<path d="M4486 3579 c22 -6 34 -17 40 -37 l8 -27 6 35 6 35 11 -35 10 -35 4
38 5 37 -61 -1 c-53 -1 -56 -2 -29 -10z"/>
<path d="M4621 3324 c0 -11 3 -14 6 -6 3 7 2 16 -1 19 -3 4 -6 -2 -5 -13z"/>
<path d="M4108 3284 c-15 -14 -9 -84 7 -91 25 -9 28 2 13 52 -7 26 -16 43 -20
39z"/>
<path d="M4623 3195 c0 -33 2 -45 4 -27 2 18 2 45 0 60 -2 15 -4 0 -4 -33z"/>
<path d="M4672 3185 c0 -16 2 -22 5 -12 2 9 2 23 0 30 -3 6 -5 -1 -5 -18z"/>
<path d="M4200 3111 c0 -21 -7 -54 -15 -74 -8 -19 -23 -85 -35 -147 -11 -61
-24 -129 -30 -150 -8 -28 -40 -244 -40 -267 0 -2 -20 -3 -44 -3 l-45 0 -46
-142 c-26 -79 -61 -177 -79 -218 -54 -126 -92 -258 -78 -272 25 -25 242 -42
242 -18 0 5 -16 9 -35 8 -19 -1 -37 1 -40 4 -3 3 0 29 5 59 6 30 11 80 11 111
1 62 37 225 63 280 9 18 22 51 30 73 8 22 15 33 16 25 4 -31 18 37 19 89 1 29
5 81 11 115 5 33 14 94 21 135 8 53 14 70 21 60 7 -10 8 -8 5 9 -7 30 1 28 14
-4 15 -42 22 -22 24 83 2 54 6 107 8 118 3 11 6 31 6 44 1 34 12 19 16 -21 5
-57 6 -473 1 -489 -3 -7 -7 -66 -10 -129 -3 -63 -12 -153 -21 -200 -9 -47 -26
-152 -39 -235 l-22 -149 -49 2 c-37 1 -45 -1 -30 -8 11 -5 34 -9 52 -9 18 -1
44 -11 61 -26 27 -22 38 -25 104 -23 40 0 164 -2 275 -7 180 -7 210 -6 269 10
58 16 65 20 61 39 -6 22 -119 349 -123 354 -1 2 -27 -4 -58 -13 -67 -19 -88
-17 -92 10 -1 11 -6 47 -10 80 -4 33 -17 83 -29 110 -35 82 -39 106 -16 112
10 3 21 13 24 24 5 20 -7 26 -18 9 -3 -5 -42 -10 -86 -10 -95 0 -99 5 -71 87
41 120 46 158 34 225 -6 35 -16 117 -22 183 -14 152 -19 165 -64 165 -18 0
-53 7 -76 15 -64 22 -70 20 -70 -24z"/>
<path d="M4660 3139 c0 -5 -4 -8 -8 -5 -5 3 -6 -8 -4 -25 6 -41 22 -37 22 6 0
19 -2 35 -5 35 -3 0 -5 -5 -5 -11z"/>
<path d="M4646 3033 c-3 -4 -6 -16 -6 -27 1 -19 2 -19 11 -3 8 13 14 15 30 7
27 -15 24 -5 -5 13 -13 9 -26 13 -30 10z"/>
<path d="M4442 3018 c6 -18 28 -21 28 -4 0 9 -7 16 -16 16 -9 0 -14 -5 -12
-12z"/>
<path d="M4620 2751 c0 -6 15 -11 34 -11 19 0 42 -7 51 -16 9 -9 18 -14 21
-11 9 8 -37 34 -73 42 -21 4 -33 3 -33 -4z"/>
<path d="M3973 2733 c-22 -4 -33 -23 -14 -23 4 0 6 -32 3 -72 -4 -64 -3 -71
12 -65 10 4 15 3 11 -3 -3 -6 1 -10 9 -10 20 0 21 27 1 46 -19 19 -19 51 0 88
16 31 19 47 8 45 -5 -1 -18 -4 -30 -6z"/>
<path d="M4597 2633 c-12 -38 -15 -59 -8 -61 6 -2 11 -15 11 -29 0 -15 3 -23
7 -20 6 6 17 167 11 167 -2 0 -11 -26 -21 -57z"/>
<path d="M4656 2596 c4 -23 2 -27 -10 -23 -11 5 -16 0 -16 -14 0 -11 4 -18 9
-15 10 7 21 -17 21 -45 0 -11 5 -17 10 -14 14 8 11 52 -6 100 -8 26 -12 30 -8
11z"/>
<path d="M4687 2588 c-3 -8 -2 -30 3 -49 5 -22 9 -27 10 -14 2 15 4 12 10 -10
5 -20 8 -23 9 -10 1 30 -25 100 -32 83z"/>
<path d="M3743 1655 c-15 -17 -17 -65 -3 -65 6 0 10 12 10 26 0 15 4 23 10 19
6 -4 9 -14 8 -22 -2 -9 3 -18 10 -20 16 -6 15 37 -2 60 -16 20 -17 20 -33 2z"/>
<path d="M4645 1616 c-3 -9 -7 -23 -10 -32 -3 -8 0 -12 5 -9 6 3 10 15 10 26
0 14 7 19 29 19 36 0 44 -10 35 -45 -6 -24 -11 -26 -40 -23 -19 2 -34 1 -34
-3 0 -12 25 -17 53 -12 31 6 47 45 30 72 -14 22 -72 27 -78 7z"/>
<path d="M5330 4135 c0 -8 2 -15 4 -15 2 0 6 7 10 15 3 8 1 15 -4 15 -6 0 -10
-7 -10 -15z"/>
<path d="M3735 1041 c37 -17 159 -40 265 -51 58 -5 121 -12 140 -15 91 -12
143 -16 390 -31 266 -17 491 -15 523 2 12 7 -66 15 -245 27 -145 10 -315 22
-378 27 -63 5 -223 16 -355 25 -132 8 -267 17 -300 20 -40 3 -53 1 -40 -4z"/>
</g>
</svg>
